<?xml version="1.0" encoding="utf-8"?>
<!-- Generator: Adobe Illustrator 22.0.1, SVG Export Plug-In . SVG Version: 6.00 Build 0)  -->
<svg version="1.1" id="Layer_1" xmlns="http://www.w3.org/2000/svg" xmlns:xlink="http://www.w3.org/1999/xlink" x="0px" y="0px"
	 viewBox="0 0 118 118" style="enable-background:new 0 0 118 118;" xml:space="preserve">
<style type="text/css">
	.st0{fill:#8A2CB0;}
	.st1{fill:#AB47BC;}
	.st2{enable-background:new    ;}
</style>
<g>
	<path class="st0" d="M90.2,19.5l-6.7,4L65,34.5c-3,1.8-4.9,5.1-4.9,8.6v20.7v7.8c1.4-0.2,2.7-0.6,3.8-1.2l22.2-12.7
		c3.1-1.8,5-5.1,5-8.7V23.5C91.1,22.2,90.8,20.8,90.2,19.5z"/>
	<path class="st0" d="M80.1,19.5L63,9.7c-2.5-1.4-5.6-1.4-8.1,0l-17,9.8c-1,0.6-1.9,1.4-2.5,2.3l18.7,10.8c2.1,1.3,3.8,3.2,4.9,5.4
		c1-2.2,2.7-4.1,4.9-5.4l18.6-11C81.8,20.7,81,20,80.1,19.5z"/>
	<path class="st0" d="M52.9,34.5L34.3,23.8c-0.3,0.8-0.5,1.7-0.5,2.6V46c0,2.9,1.5,5.6,4,7l17,9.8c0.9,0.5,1.9,0.8,2.9,1V43.1
		C57.8,39.6,55.9,36.3,52.9,34.5z"/>
	<path class="st1" d="M86.1,14.9L63.9,2.1c-3.1-1.8-6.9-1.8-10,0l-22,12.8c-1.3,0.7-2.4,1.8-3.2,3l6.8,3.9c0.7-0.9,1.5-1.7,2.5-2.3
		l17-9.8c2.5-1.4,5.6-1.4,8.1,0l17.1,9.8c0.9,0.5,1.7,1.2,2.3,2.1l6.7-4C88.3,16.5,87.3,15.6,86.1,14.9z"/>
	<path class="st1" d="M37.9,53c-2.5-1.4-4-4.1-4-7V26.5c0-0.9,0.2-1.8,0.5-2.6L27.6,20c-0.5,1.2-0.7,2.4-0.7,3.6V49
		c0,3.6,1.9,6.9,5,8.6L54,70.4c1.2,0.7,2.4,1.1,3.8,1.2v-7.8c-1-0.1-2-0.5-2.9-1L37.9,53z"/>
	<path class="st1" d="M90.2,19.5l-6.7,4c0.4,0.9,0.6,1.9,0.6,2.9V46c0,2.9-1.6,5.6-4,7L63,62.9c-0.9,0.5-1.9,0.8-2.9,1v7.8
		c1.4-0.2,2.7-0.6,3.8-1.2l22.2-12.7c3.1-1.8,5-5.1,5-8.7V23.5C91.1,22.2,90.8,20.8,90.2,19.5z"/>
</g>
<g class="st2">
	<path class="st1" d="M36.9,90.8v5.8h9.9v7.6h-9.9v13h-8.3v-34h18.6v7.6H36.9z"/>
	<path class="st1" d="M51.5,89v-5.8h7.6V89H51.5z M51.5,117.2V91.7h7.6v25.5H51.5z"/>
	<path class="st1" d="M80.7,117.2v-13.9c0-2.9-0.6-5.3-4-5.3c-3.5,0-4.4,2.3-4.4,5.3v13.9h-7.6V91.7h7.1v2.7h0.1
		c1.6-2.6,3.9-3.6,6.9-3.6c2.2,0,4.9,0.8,6.5,2.2c2.4,2,2.9,5.2,2.9,8.2v16H80.7z"/>
</g>
</svg>
