<?xml version="1.0" encoding="utf-8"?>
<!-- Generator: Adobe Illustrator 22.0.1, SVG Export Plug-In . SVG Version: 6.00 Build 0)  -->
<svg version="1.1" id="Layer_1" xmlns="http://www.w3.org/2000/svg" xmlns:xlink="http://www.w3.org/1999/xlink" x="0px" y="0px"
	 viewBox="0 0 118 118" style="enable-background:new 0 0 118 118;" xml:space="preserve">
<style type="text/css">
	.st0{enable-background:new    ;}
	.st1{fill:#AB47BC;}
	.st2{fill:#FDE860;}
	.st3{fill:#8A2CB0;}
	.st4{fill:#00ADEE;}
	.st5{fill:#E99D24;}
</style>
<g class="st0">
	<path class="st1" d="M36.9,90.8v5.8h9.9v7.6h-9.9v13h-8.3v-34h18.6v7.6H36.9z"/>
	<path class="st1" d="M51.5,89v-5.8h7.6V89H51.5z M51.5,117.2V91.7h7.6v25.5H51.5z"/>
	<path class="st1" d="M80.7,117.2v-13.9c0-2.9-0.6-5.3-4-5.3c-3.5,0-4.4,2.3-4.4,5.3v13.9h-7.6V91.7h7.1v2.7h0.1
		c1.6-2.6,3.9-3.6,6.9-3.6c2.2,0,4.9,0.8,6.5,2.2c2.4,2,2.9,5.2,2.9,8.2v16C88.2,117.2,80.7,117.2,80.7,117.2z"/>
</g>
<g>
	<g>
		<path class="st2" d="M90.4,19.5l-6.7,4l-18.6,11c-3,1.8-4.9,5.1-4.9,8.6v20.7v7.8c1.4-0.2,2.7-0.6,3.8-1.2l22.2-12.8
			c3.1-1.8,5-5.1,5-8.7V23.5C91.2,22.1,90.9,20.7,90.4,19.5z"/>
		<g>
			<path class="st3" d="M80.1,53c2.5-1.4,4.1-4.1,4.1-7V26.4c0-1-0.2-2-0.6-2.9l-18.6,11c-3,1.8-4.9,5.1-4.9,8.6v20.7
				c1-0.1,2-0.4,2.9-1L80.1,53z"/>
			<path class="st1" d="M90.4,19.5l-6.7,4c0.4,0.9,0.6,1.9,0.6,2.9V46c0,2.9-1.6,5.6-4.1,7L63,62.9c-0.9,0.5-1.9,0.8-2.9,1v7.8
				c1.4-0.2,2.7-0.6,3.8-1.2l22.2-12.8c3.1-1.8,5-5.1,5-8.7V23.5C91.2,22.1,90.9,20.7,90.4,19.5z"/>
		</g>
	</g>
	<g>
		<path class="st4" d="M86.2,14.8L64,2c-3.1-1.8-6.9-1.8-10,0L31.9,14.8c-1.3,0.7-2.4,1.8-3.2,3l6.8,3.9l18.7,10.8
			c2.1,1.3,3.8,3.2,4.9,5.4c1.1-2.3,2.8-4.1,4.9-5.4l18.6-11l6.7-4C88.4,16.4,87.4,15.5,86.2,14.8z"/>
		<g>
			<path class="st3" d="M80.1,19.4L63,9.5c-2.5-1.4-5.6-1.4-8.1,0l-17,9.8c-1,0.6-1.9,1.4-2.5,2.3l18.7,10.8
				c2.1,1.3,3.8,3.2,4.9,5.4c1.1-2.3,2.8-4.1,4.9-5.4l18.6-11C81.8,20.6,81.1,19.9,80.1,19.4z"/>
			<path class="st1" d="M86.2,14.8L64,2c-3.1-1.8-6.9-1.8-10,0L31.9,14.8c-1.3,0.7-2.4,1.8-3.2,3l6.8,3.9c0.7-0.9,1.5-1.7,2.5-2.3
				l17-9.8c2.5-1.4,5.6-1.4,8.1,0l17.1,9.8c0.9,0.5,1.7,1.2,2.3,2.1l6.7-4C88.4,16.4,87.4,15.5,86.2,14.8z"/>
		</g>
	</g>
	<g>
		<path class="st5" d="M52.9,34.5L34.3,23.8l-6.8-3.9c-0.5,1.2-0.7,2.4-0.7,3.6V49c0,3.6,1.9,6.9,5,8.7L54,70.4
			c1.2,0.7,2.5,1.1,3.8,1.2v-7.8V43.1C57.8,39.6,56,36.3,52.9,34.5z"/>
		<g>
			<path class="st1" d="M37.9,53c-2.5-1.4-4-4.1-4-7V26.4c0-0.9,0.2-1.8,0.5-2.6l-6.8-3.9c-0.5,1.2-0.7,2.4-0.7,3.6V49
				c0,3.6,1.9,6.9,5,8.7L54,70.4c1.2,0.7,2.5,1.1,3.8,1.2v-7.8c-1-0.1-2-0.5-2.9-1L37.9,53z"/>
			<path class="st3" d="M52.9,34.5L34.3,23.8c-0.3,0.8-0.5,1.7-0.5,2.6V46c0,2.9,1.6,5.6,4,7l17,9.8c0.9,0.5,1.9,0.8,2.9,1V43.1
				C57.8,39.6,56,36.3,52.9,34.5z"/>
		</g>
	</g>
</g>
</svg>
