<svg id="Layer_1" data-name="Layer 1" xmlns="http://www.w3.org/2000/svg" viewBox="0 0 40 40"><defs><style>.cls-1{fill:#75a928;}.cls-2{fill:#bc1142;}.cls-3{fill:#fff;}.cls-4{fill:#1a1a1a;}</style></defs><path d="M12,.5a1.11,1.11,0,0,0-.65.27A1.48,1.48,0,0,0,9.67.93c-.79-.11-1,.11-1.24.35-.17,0-1.3-.18-1.81.59-1.3-.15-1.71.77-1.24,1.62a1.11,1.11,0,0,0,.08,1.59c-.22.44-.09.91.43,1.48A1.24,1.24,0,0,0,6.5,7.94c-.09.84.77,1.33,1,1.5.1.49.31,1,1.29,1.2.16.73.75.85,1.32,1a6.15,6.15,0,0,0-3.49,6.06l-.28.5a6,6,0,0,0-1.06,9,16.29,16.29,0,0,0,.83,2.7,6.56,6.56,0,0,0,4.09,5.24,14,14,0,0,0,3.92,2.23A6.54,6.54,0,0,0,19,39.5H19a6.54,6.54,0,0,0,4.82-2.16,14,14,0,0,0,3.92-2.23,6.56,6.56,0,0,0,4.09-5.24,16.29,16.29,0,0,0,.83-2.7,6,6,0,0,0-1.06-9l-.28-.5a6.15,6.15,0,0,0-3.49-6.06c.57-.16,1.16-.28,1.32-1,1-.25,1.19-.71,1.29-1.2.25-.17,1.11-.66,1-1.5a1.24,1.24,0,0,0,.61-1.38c.52-.57.65-1,.43-1.48a1.11,1.11,0,0,0,.08-1.59c.47-.85.06-1.77-1.24-1.62-.51-.77-1.64-.59-1.81-.59-.2-.24-.45-.46-1.24-.35A1.48,1.48,0,0,0,26.65.77C26,.22,25.49.66,25,.83c-.85-.28-1,.1-1.46.25-.93-.19-1.21.23-1.65.68h-.52A5.9,5.9,0,0,0,19,5.11a6,6,0,0,0-2.33-3.36h-.52c-.44-.45-.72-.87-1.65-.68C14.08.93,13.89.55,13,.83A3.32,3.32,0,0,0,12,.5Z"/><path class="cls-1" d="M9.22,4.12c3.7,1.91,5.85,3.45,7,4.77-.6,2.42-3.75,2.53-4.9,2.46a.88.88,0,0,0,.5-.44c-.29-.21-1.31,0-2-.43a.66.66,0,0,0,.53-.31,5.93,5.93,0,0,1-1.83-.76,1.05,1.05,0,0,0,.75-.16A7.24,7.24,0,0,1,7.51,8.17c.32,0,.66,0,.75-.12A7.09,7.09,0,0,1,6.85,6.91a1.08,1.08,0,0,0,.73-.07,5.53,5.53,0,0,1-1.2-1.32.91.91,0,0,0,.84,0c-.14-.32-.75-.51-1.1-1.26.34,0,.7.07.77,0a3.61,3.61,0,0,0-.7-1.39A12.66,12.66,0,0,0,8,2.8l-.46-.46a3.56,3.56,0,0,1,2,.19c.24-.19,0-.42-.29-.67a6.64,6.64,0,0,1,1.65.42c.27-.24-.17-.48-.38-.72a4.21,4.21,0,0,1,1.73.68c.29-.28,0-.51-.17-.75a4.17,4.17,0,0,1,1.45.93c.13-.17.34-.3.09-.72a3.68,3.68,0,0,1,1.17,1c.31-.2.18-.47.18-.72A11,11,0,0,1,16.2,3.31c.09-.06.16-.26.22-.58,1.25,1.21,3,4.26.45,5.47A23.88,23.88,0,0,0,9.22,4.12Z"/><path class="cls-1" d="M28.86,4.12C25.16,6,23,7.57,21.83,8.89c.6,2.42,3.75,2.53,4.91,2.46a.87.87,0,0,1-.51-.44c.29-.21,1.32,0,2-.43a.66.66,0,0,1-.53-.31,5.73,5.73,0,0,0,1.83-.76,1,1,0,0,1-.74-.16,7.19,7.19,0,0,0,1.75-1.08c-.31,0-.65,0-.75-.12a7.09,7.09,0,0,0,1.41-1.14,1.1,1.1,0,0,1-.73-.07,5.53,5.53,0,0,0,1.2-1.32.91.91,0,0,1-.84,0C31,5.19,31.62,5,32,4.25a1.91,1.91,0,0,1-.78,0,3.61,3.61,0,0,1,.7-1.39A12.58,12.58,0,0,1,30.1,2.8l.45-.46a3.56,3.56,0,0,0-2,.19c-.24-.19,0-.42.29-.67a6.88,6.88,0,0,0-1.65.42c-.27-.24.17-.48.38-.72a4.28,4.28,0,0,0-1.73.68c-.29-.28,0-.51.18-.75a4.23,4.23,0,0,0-1.46.93c-.13-.17-.33-.3-.09-.72a3.74,3.74,0,0,0-1.16,1c-.31-.2-.19-.47-.19-.72a12.84,12.84,0,0,0-1.26,1.32,1.18,1.18,0,0,1-.22-.58c-1.24,1.21-3,4.26-.45,5.47a24,24,0,0,1,7.65-4.08Z"/><path class="cls-2" d="M23.53,28.76a4.28,4.28,0,0,1-4.44,4.09,4.27,4.27,0,0,1-4.43-4.09,4.27,4.27,0,0,1,4.43-4.08A4.27,4.27,0,0,1,23.53,28.76Z"/><path class="cls-2" d="M16.52,17.08c1.84,1.21,2.17,3.93.74,6.1s-4.07,2.94-5.91,1.73h0c-1.84-1.2-2.17-3.93-.74-6.09s4.08-2.94,5.91-1.74Z"/><path class="cls-2" d="M21.48,16.86c-1.83,1.21-2.16,3.94-.74,6.1s4.08,2.94,5.92,1.73h0c1.84-1.2,2.17-3.93.74-6.09s-4.08-2.94-5.92-1.74Z"/><path class="cls-2" d="M7.34,19.05c2-.53.67,8.21-.94,7.49A4.72,4.72,0,0,1,7.34,19.05Z"/><path class="cls-2" d="M30.27,18.94c-2-.53-.67,8.21.94,7.49A4.72,4.72,0,0,0,30.27,18.94Z"/><path class="cls-2" d="M23.53,12.43c3.42-.57,6.27,1.46,6.16,5.17-.12,1.43-7.42-5-6.16-5.17Z"/><path class="cls-2" d="M14.07,12.32c-3.43-.57-6.28,1.46-6.16,5.17C8,18.92,15.33,12.54,14.07,12.32Z"/><path class="cls-2" d="M19,11.46c-2-.05-4,1.52-4,2.43,0,1.1,1.61,2.23,4,2.26s4-.9,4-2-2.23-2.66-4-2.64Z"/><path class="cls-2" d="M19.11,34.15c1.78-.08,4.17.57,4.18,1.43s-2.17,2.74-4.3,2.7-4.36-1.8-4.33-2.46C14.62,34.86,17.34,34.1,19.11,34.15Z"/><path class="cls-2" d="M12.53,29c1.27,1.53,1.85,4.22.79,5-1,.6-3.44.35-5.16-2.13-1.17-2.08-1-4.2-.2-4.83C9.18,26.33,11.07,27.33,12.53,29Z"/><path class="cls-2" d="M25.44,28.54C24.06,30.15,23.3,33.08,24.3,34c1,.74,3.53.63,5.43-2,1.38-1.77.91-4.72.13-5.51C28.69,25.61,27,26.77,25.44,28.54Z"/><circle class="cls-3" cx="29.44" cy="26.48" r="9.17"/><path d="M29.44,18a8.53,8.53,0,1,1-8.52,8.53A8.53,8.53,0,0,1,29.44,18m0-1.28a9.81,9.81,0,1,0,9.81,9.81,9.82,9.82,0,0,0-9.81-9.81Z"/><path class="cls-4" d="M26.43,30.55a2.87,2.87,0,0,1-1.07-.21,2.56,2.56,0,0,1-.91-.67,3.26,3.26,0,0,1-.64-1.17,5.34,5.34,0,0,1-.24-1.71A5.93,5.93,0,0,1,23.82,25a3.88,3.88,0,0,1,.68-1.28,2.77,2.77,0,0,1,1-.74,2.9,2.9,0,0,1,1.15-.25,2.94,2.94,0,0,1,1.31.27,3.23,3.23,0,0,1,.9.64l-.92,1.05a1.73,1.73,0,0,0-.52-.37,1.41,1.41,0,0,0-1.24-.05,1.24,1.24,0,0,0-.49.4,2.69,2.69,0,0,0-.34.74,4.73,4.73,0,0,0-.15,1.11,1.77,1.77,0,0,1,.33-.34,2.42,2.42,0,0,1,.4-.25,2.23,2.23,0,0,1,.4-.16,1.89,1.89,0,0,1,.39,0,2.93,2.93,0,0,1,.9.14,2,2,0,0,1,.71.43,1.77,1.77,0,0,1,.47.73,3.07,3.07,0,0,1,0,2.1,2.53,2.53,0,0,1-.55.8,2.34,2.34,0,0,1-.79.51A2.93,2.93,0,0,1,26.43,30.55Zm0-1.31a.92.92,0,0,0,.67-.29,1.32,1.32,0,0,0,.28-.94,1.1,1.1,0,0,0-.28-.86,1.05,1.05,0,0,0-.71-.24,1.24,1.24,0,0,0-.6.17,1.55,1.55,0,0,0-.55.58,3.17,3.17,0,0,0,.18.75,1.75,1.75,0,0,0,.28.49.84.84,0,0,0,.34.26A1,1,0,0,0,26.4,29.24Z"/><path class="cls-4" d="M32.89,30.41V28.59H29.61v-1.2l2.77-4.56h2.15v4.43h.87v1.33h-.87v1.82Zm-1.6-3.15h1.6V26c0-.25,0-.53,0-.86s0-.6.05-.84h-.05c-.09.21-.19.42-.29.63l-.33.65Z"/></svg>