<?xml version="1.0" encoding="UTF-8"?>
<svg width="243px" height="240px" viewBox="0 0 243 240" version="1.1" xmlns="http://www.w3.org/2000/svg" xmlns:xlink="http://www.w3.org/1999/xlink">
    <g id="Page-1" stroke="none" stroke-width="1" fill="none" fill-rule="evenodd">
        <g id="Group-2" transform="translate(-9.000000, 0.000000)">
            <g id="rpi" transform="translate(30.000000, 0.000000)">
                <g id="Group">
                    <path d="M50.9724199,0.219665272 C49.7616932,0.257261657 48.4577861,0.704795515 46.9790925,1.87238494 C43.3572625,0.474460117 39.8447635,-0.0111929038 36.7030694,2.83472803 C31.8545895,2.20518567 30.2768517,3.50443314 29.0822954,5.0209205 C28.0176711,4.99887364 21.1144245,3.92566695 17.9490658,8.65062762 C9.9936391,7.70889674 7.47968102,13.3327615 10.3282918,18.5774059 C8.70356002,21.0942109 7.02005949,23.5806614 10.8196174,28.3786611 C9.47551579,31.050967 10.3086619,33.9498845 13.4748665,37.458159 C12.6392845,41.2146778 14.2817535,43.8651414 17.227758,45.9309623 C16.6767742,51.0715682 21.9389661,54.060646 23.5104537,55.125523 C24.113819,58.1208971 25.371356,60.9473473 31.3821174,62.5104603 C32.3733759,66.9744268 35.9857959,67.7452921 39.4837633,68.6820084 C27.9221216,75.4065406 18.0073826,84.2544469 18.0745107,105.962343 L16.3810053,108.985356 C3.1237043,117.053068 -8.80340006,142.98243 9.84741993,164.058577 C11.0656971,170.655525 13.1088483,175.393794 14.9279359,180.638075 C17.6488626,201.76965 35.4064314,211.664556 40.0900801,212.834728 C46.9532609,218.065898 54.2630656,223.029446 64.1545819,226.506276 C73.4793651,236.129526 83.5814314,239.797121 93.7386566,239.790795 C93.887568,239.790701 94.0392325,239.792469 94.1881673,239.790795 C104.345396,239.797121 114.447459,236.129526 123.772242,226.506276 C133.663758,223.029446 140.973563,218.065898 147.836744,212.834728 C152.520392,211.664556 170.277963,201.76965 172.998888,180.638075 C174.817975,175.393794 176.861124,170.655525 178.079404,164.058577 C196.730222,142.98243 184.803117,117.053068 171.545819,108.985356 L169.852313,105.962343 C169.919441,84.2544469 160.004703,75.4065406 148.44306,68.6820084 C151.941028,67.7452921 155.553448,66.9744268 156.544706,62.5104603 C162.555468,60.9473473 163.813007,58.1208971 164.41637,55.125523 C165.987859,54.060646 171.25005,51.0715682 170.699066,45.9309623 C173.645073,43.8651414 175.28754,41.2146778 174.451957,37.458159 C177.618165,33.9498845 178.451306,31.0509667 177.107206,28.3786611 C180.906763,23.5806614 179.223263,21.0942109 177.598532,18.5774059 C180.447143,13.3327615 177.933185,7.70889674 169.977758,8.65062762 C166.8124,3.92566695 159.909154,4.99887364 158.844528,5.0209205 C157.649972,3.50443314 156.072234,2.20518561 151.223754,2.83472803 C148.08206,-0.0111928636 144.569561,0.474460251 140.947731,1.87238494 C136.646077,-1.52423869 133.798292,1.19847833 130.546263,2.22803347 C125.336506,0.525011548 124.145894,2.85762604 121.587411,3.80753138 C115.908858,2.60650169 114.18262,5.22126594 111.45774,7.98117155 L108.290258,7.91841004 C99.7230311,12.9704987 95.4668583,23.2574899 93.9581851,28.5460251 C92.4488127,23.2566597 88.2022841,12.9696094 79.6365658,7.91841004 L76.4690836,7.98117155 C73.7442043,5.22126594 72.0179662,2.60650159 66.3394128,3.80753138 C63.7809302,2.85762621 62.5903181,0.525011849 57.3805605,2.22803347 C55.2464159,1.55238792 53.2838097,0.147890343 50.9724199,0.219665272 Z" id="Shape" fill="#000000"></path>
                    <path d="M33.917555,22.4453834 C56.6473806,34.1713607 69.8606428,43.6567531 77.09974,51.7355816 C73.392477,66.6033941 54.0525524,67.2819046 46.9810729,66.8648134 C48.4290141,66.1904234 49.6371181,65.3827113 50.065514,64.1415531 C48.2910582,62.8796921 41.9992803,64.0086025 37.6067907,61.5393238 C39.2941309,61.1895364 40.0833997,60.8487732 40.8726685,59.6027816 C36.7227157,58.2783632 32.2525608,57.1370343 29.6235293,54.9429791 C31.0423115,54.9605188 32.3669765,55.260569 34.2199507,53.9747079 C30.5028715,51.9702929 26.5363345,50.3819013 23.4546458,47.3178444 C25.376532,47.2707715 27.4486262,47.2988318 28.0510689,46.5916418 C24.6488576,44.4826276 21.7784114,42.1371247 19.4025363,39.5716753 C22.0920667,39.8965356 23.2278626,39.61679 23.8780008,39.1480569 C21.3062829,36.5123448 18.0514864,34.2867381 16.4995323,31.0387883 C18.4964824,31.7274859 20.3235088,31.9911096 21.6402685,30.9782711 C20.7663813,29.0055672 17.0220877,27.8419973 14.8665927,23.2321034 C16.9688338,23.436079 19.1984894,23.6910517 19.6444532,23.2321034 C18.666884,19.2526681 16.9925637,17.0161958 15.3504268,14.6992154 C19.8497294,14.6323605 26.6664733,14.7167374 26.3576498,14.3361138 L23.5756044,11.4918176 C27.9703945,10.3078038 32.4673525,11.681998 35.7319323,12.7021563 C37.1977502,11.5447736 35.7059736,10.0812425 33.917555,8.58700485 C37.6524527,9.08596586 41.0273738,9.94512669 44.0780685,11.128716 C45.707975,9.65613724 43.0196854,8.18355849 41.7193777,6.71097975 C47.4896263,7.8064 49.9342284,9.34551699 52.363727,10.8866484 C54.1264277,9.19600435 52.4646381,7.75918427 51.2750999,6.287361 C55.6257478,7.89976201 57.8667345,9.98126929 60.2260275,12.03647 C61.0259273,10.9562849 62.2582138,10.1645342 60.770341,7.5582169 C63.8593483,9.33988218 66.1859653,11.4394085 67.9068946,13.7914611 C69.8181253,12.5737403 69.0455557,10.9084408 69.0559994,9.37372485 C72.2662667,11.9867846 74.3035645,14.7675156 76.7973443,17.4829945 C77.299689,17.1169905 77.7395555,15.8757275 78.1278859,13.9124951 C85.786842,21.3474122 96.6087241,40.0742494 80.9099313,47.4993941 C67.5563214,36.4710561 51.6006209,28.4575428 33.917555,22.4453834 Z" id="Shape" fill="#75A928"></path>
                    <path d="M154.52291,22.4453834 C131.793085,34.1713607 118.579822,43.6567531 111.340725,51.7355816 C115.047988,66.6033941 134.387913,67.2819046 141.459392,66.8648134 C140.011451,66.1904234 138.803347,65.3827113 138.374951,64.1415531 C140.149407,62.8796921 146.441185,64.0086025 150.833675,61.5393238 C149.146334,61.1895364 148.357066,60.8487732 147.567797,59.6027816 C151.71775,58.2783632 156.187904,57.1370343 158.816937,54.9429791 C157.398153,54.9605188 156.073489,55.260569 154.220515,53.9747079 C157.937592,51.9702929 161.904131,50.3819013 164.985819,47.3178444 C163.063934,47.2707715 160.99184,47.2988318 160.389397,46.5916418 C163.791608,44.4826276 166.662054,42.1371247 169.037929,39.5716753 C166.348398,39.8965356 165.212604,39.61679 164.562465,39.1480569 C167.134181,36.5123448 170.38898,34.2867381 171.940933,31.0387883 C169.943982,31.7274859 168.116956,31.9911096 166.800197,30.9782711 C167.674086,29.0055672 171.418377,27.8419973 173.573874,23.2321034 C171.471632,23.436079 169.241976,23.6910517 168.796011,23.2321034 C169.773581,19.2526681 171.447901,17.0161958 173.090038,14.6992154 C168.590736,14.6323605 161.773993,14.7167384 162.082815,14.3361138 L164.86486,11.4918176 C160.470069,10.3078038 155.973113,11.681998 152.708533,12.7021563 C151.242715,11.5447736 152.734492,10.0812425 154.52291,8.58700485 C150.788013,9.08596586 147.413091,9.94512669 144.362397,11.128716 C142.73249,9.65613724 145.42078,8.18355849 146.721088,6.71097975 C140.950839,7.8064 138.506237,9.34551699 136.076738,10.8866484 C134.314038,9.19600435 135.975827,7.75918427 137.165365,6.287361 C132.814718,7.89976201 130.573731,9.98126929 128.214438,12.03647 C127.414538,10.9562849 126.182251,10.1645342 127.670124,7.5582169 C124.581117,9.33988218 122.2545,11.4394085 120.533571,13.7914611 C118.62234,12.5737403 119.39491,10.9084408 119.384466,9.37372485 C116.174199,11.9867846 114.136901,14.7675156 111.643121,17.4829945 C111.140776,17.1169905 110.70091,15.8757275 110.312579,13.9124951 C102.653623,21.3474122 91.8317411,40.0742494 107.530534,47.4993941 C120.884144,36.4710561 136.839844,28.4575428 154.52291,22.4453834 L154.52291,22.4453834 Z" id="Shape" fill="#75A928"></path>
                    <path d="M121.747176,173.8447 C121.747176,187.719159 109.557418,198.966629 94.5205907,198.966629 C79.483763,198.966629 67.2940056,187.719159 67.2940056,173.8447 C67.2940056,159.970242 79.483763,148.722772 94.5205907,148.722772 C109.557418,148.722772 121.747176,159.970242 121.747176,173.8447 Z" id="Shape" fill="#BC1142"></path>
                    <path d="M91.6911672,126.131734 C91.6911672,139.627051 78.7918242,150.567167 62.8796781,150.567167 C46.9675321,150.567167 34.068189,139.627051 34.068189,126.131734 C34.068189,112.636416 46.9675321,101.6963 62.8796781,101.6963 C78.7918242,101.6963 91.6911672,112.636416 91.6911672,126.131734 Z" id="Shape" fill="#BC1142" transform="translate(62.879678, 126.131734) rotate(-56.542503) translate(-62.879678, -126.131734) "></path>
                    <path d="M153.911813,124.792821 C153.911813,138.288139 141.01247,149.228255 125.100324,149.228255 C109.188178,149.228255 96.2888352,138.288139 96.2888352,124.792821 C96.2888352,111.297504 109.188178,100.357388 125.100324,100.357388 C141.01247,100.357388 153.911813,111.297504 153.911813,124.792821 Z" id="Shape" fill="#BC1142" transform="translate(125.100324, 124.792821) rotate(236.542503) translate(-125.100324, -124.792821) "></path>
                    <path d="M22.3827893,114.171649 C34.5640576,110.905734 26.4945674,164.593911 16.5844337,160.188643 C5.683522,151.414524 2.17230354,125.719879 22.3827893,114.171649 Z" id="Shape" fill="#BC1142"></path>
                    <path d="M163.13793,113.502192 C150.956661,110.236278 159.026149,163.924455 168.936285,159.519187 C179.837197,150.745068 183.348415,125.050423 163.13793,113.502192 Z" id="Shape" fill="#BC1142"></path>
                    <path d="M121.755618,73.5241506 C142.775108,69.9726427 160.264153,82.4688502 159.560136,105.275769 C158.868708,114.01924 114.012379,74.8258711 121.755618,73.5241506 L121.755618,73.5241506 Z" id="Shape" fill="#BC1142"></path>
                    <path d="M63.6790623,72.8546946 C42.6595717,69.3031866 25.1705272,81.7993941 25.8745437,104.606313 C26.5659722,113.349784 71.4223006,74.1564151 63.6790623,72.8546946 Z" id="Shape" fill="#BC1142"></path>
                    <path d="M93.8726551,67.533282 C81.3273047,67.2067615 69.2869785,76.8501623 69.2581764,82.4435515 C69.2231789,89.2399565 79.1770831,96.1984167 93.9581851,96.3750494 C109.052728,96.4832368 118.684403,90.8050109 118.733073,83.7912536 C118.788215,75.8448234 105.004794,67.4105205 93.8726551,67.533282 L93.8726551,67.533282 Z" id="Shape" fill="#BC1142"></path>
                    <path d="M94.6387216,206.901004 C105.576655,206.42331 120.253163,210.426346 120.281922,215.736479 C120.463465,220.893031 106.971492,232.543357 93.912968,232.318119 C80.3892483,232.901854 67.1282936,221.233403 67.3020999,217.188884 C67.0996955,211.258865 83.7691604,206.628897 94.6387216,206.901004 Z" id="Shape" fill="#BC1142"></path>
                    <path d="M54.2385821,175.432197 C62.0258967,184.81989 65.5756712,201.313031 59.0769226,206.174802 C52.9287305,209.886213 37.9980816,208.357771 27.3857971,193.103146 C20.2287334,180.302584 21.1511604,167.276659 26.1762121,163.449844 C33.6910016,158.869329 45.3018415,165.056211 54.2385821,175.432197 Z" id="Shape" fill="#BC1142"></path>
                    <path d="M133.480301,172.455823 C125.054817,182.330852 120.363029,200.341851 126.509632,206.143789 C132.386566,210.650437 148.162817,210.020482 159.816294,193.840613 C168.278298,182.973764 165.442957,164.825633 160.609363,160.00794 C153.429209,154.450741 143.121714,161.562715 133.480301,172.455823 L133.480301,172.455823 Z" id="Shape" fill="#BC1142"></path>
                </g>
            </g>
            <path d="M10.1425781,100.753906 L29.6992188,100.753906 L65.2402344,163.056641 L65.2402344,100.753906 L82.6171875,100.753906 L82.6171875,190 L63.96875,190 L27.5195312,126.607422 L27.5195312,190 L10.1425781,190 L10.1425781,100.753906 Z M150.248047,129.150391 C150.248047,124.50844 149.02703,121.198578 146.584961,119.220703 C144.142891,117.242829 140.722027,116.253906 136.322266,116.253906 L118.945312,116.253906 L118.945312,142.53125 L136.322266,142.53125 C140.722027,142.53125 144.142891,141.461599 146.584961,139.322266 C149.02703,137.182932 150.248047,133.792341 150.248047,129.150391 Z M168.714844,129.029297 C168.714844,139.564506 166.050808,147.011697 160.722656,151.371094 C155.394505,155.730491 147.785857,157.910156 137.896484,157.910156 L118.945312,157.910156 L118.945312,190 L100.417969,190 L100.417969,100.753906 L139.289062,100.753906 C148.250045,100.753906 155.394505,103.054664 160.722656,107.65625 C166.050808,112.257836 168.714844,119.382113 168.714844,129.029297 Z M248.697266,116.556641 L201.470703,116.556641 L201.470703,135.507812 L244.822266,135.507812 L244.822266,151.007812 L201.470703,151.007812 L201.470703,173.955078 L250.876953,173.955078 L250.876953,190 L183.246094,190 L183.246094,100.753906 L248.697266,100.753906 L248.697266,116.556641 Z" id="NPE" stroke="#FFFFFF" stroke-width="1.5" fill="#1D32F5"></path>
        </g>
    </g>
</svg>
