<?xml version="1.0" encoding="utf-8"?>
<!-- Generator: Adobe Illustrator 23.0.2, SVG Export Plug-In . SVG Version: 6.00 Build 0)  -->
<svg version="1.1" id="Layer_1" xmlns="http://www.w3.org/2000/svg" xmlns:xlink="http://www.w3.org/1999/xlink" x="0px" y="0px"
	 viewBox="0 0 218 248.6" style="enable-background:new 0 0 218 248.6;" xml:space="preserve">
<style type="text/css">
	.st0{fill:#010101;}
	.st1{fill:#5CB21F;}
	.st2{fill:#D7224B;}
	.st3{fill:#D6224B;}
	.st4{clip-path:url(#SVGID_2_);}
	.st5{clip-path:url(#SVGID_4_);}
	.st6{clip-path:url(#SVGID_6_);}
	.st7{clip-path:url(#SVGID_8_);}
	.st8{fill:#FFFFFF;stroke:#000000;stroke-width:9;}
	.st9{fill:#DD3252;}
</style>
<g>
	<path class="st0" d="M183.8,20.9c1.4,2.1,1.9,4.4,1.2,6.8c-0.3,1-0.9,2-1.3,3c-0.1,0.3-0.3,0.8-0.2,1.1c0.5,2.6,0.1,4.9-1.6,7
		c-0.2,0.3-0.4,0.5-0.6,0.8c-0.7,0.7-0.9,1.4-0.8,2.5c0.2,2-0.5,3.8-1.7,5.3c-0.1,0.1-0.2,0.2-0.3,0.4c-1.1,1.1-2,2.2-2.1,3.9
		c-0.1,1.8-1.2,3.2-2.5,4.4c-1,0.8-2,1.6-3,2.4c-0.5,0.4-0.9,0.8-1,1.4c-0.5,2.1-1.6,3.8-3.5,5c-1.2,0.7-2.5,1.3-3.7,2
		c-0.4,0.2-0.7,0.5-0.9,0.8c-1.1,2.2-2.7,3.7-5,4.5c-0.7,0.2-1.3,0.5-2.1,0.7c1.2,1,2.4,1.8,3.5,2.7c3.2,2.7,6,5.8,8.2,9.4
		c4,6.6,6,13.7,6.1,21.4c0,1.7,0.8,3.1,2.2,4.1c5,3.6,9,8,11.8,13.5c2.3,4.5,3.8,9.3,4.2,14.4c0.6,7.1-0.7,13.7-3.6,20.2
		c-1.2,2.7-2.9,5.2-4.7,7.5c-0.6,0.7-0.9,1.4-1.1,2.3c-0.7,2.8-1.4,5.7-2.3,8.4c-0.5,1.6-0.6,3.3-0.6,5c-0.4,9-3.6,16.9-9.1,23.9
		c-5.1,6.5-11.7,10.9-19.5,13.6c-0.7,0.2-1.4,0.6-2,1c-5.9,4.3-12.2,7.9-19,10.6c-0.5,0.2-1,0.6-1.3,0.9c-3.4,3.7-7.2,6.9-11.7,9.2
		c-4.4,2.3-9.1,3.8-14.1,4.4c-3.5,0.4-7,0.4-10.5,0c-3.5-0.4-6.9-1.4-10.2-2.7c-5.7-2.2-10.5-5.7-14.7-10.1
		c-0.4-0.4-0.9-0.7-1.4-0.9c-8.1-3.1-15.7-7.4-22.6-12.7c-0.5-0.4-1.1-0.7-1.6-1c-5.8-2.5-10.7-6.1-14.9-10.9
		c-5.4-6.2-8.6-13.4-10-21.4c-0.1-0.6-0.3-1.2-0.5-1.7c-1.9-4.7-3.4-9.5-4.6-14.4c-0.2-0.8-0.5-1.5-1-2.1c-4.2-5.1-7-10.9-8.2-17.4
		c-1.5-8-0.6-15.7,2.7-23.2c2.7-6.2,6.9-11.1,12.2-15.2c1.4-1.1,2.2-2.6,2.2-4.4c-0.1-6.9,1.4-13.5,4.5-19.7
		c1.9-3.8,4.5-7.2,7.6-10.2c1.9-1.9,4-3.6,6.2-5c0.1-0.1,0.2-0.2,0.4-0.4c-0.4-0.2-0.8-0.4-1.1-0.5c-1.7-0.8-2.9-2.1-3.7-3.8
		c-0.3-0.6-0.7-1-1.3-1.3c-1.2-0.6-2.4-1.3-3.5-2c-1.8-1.2-2.9-2.8-3.4-4.9c-0.1-0.6-0.4-0.9-0.8-1.2c-1-0.8-2-1.6-3-2.4
		c-1.8-1.5-2.7-3.5-2.8-5.8c0-0.5-0.2-0.9-0.6-1.2c-1.2-1.1-2.3-2.2-2.8-3.8c-0.3-1-0.5-2-0.5-3c0.1-1.2-0.3-2.1-1-3
		c-1.5-1.7-2.1-3.7-2.1-6c0,0,0-0.1,0-0.1c0.5-1.4-0.1-2.7-0.7-3.9c-1.3-2.6-1.2-5.2,0.2-7.7c0.3-0.5,0.2-0.8,0-1.3
		c-2.2-5.4,1.8-10.6,6.7-11c0.3,0,0.7-0.1,1,0c1.1,0.3,1.8-0.1,2.6-0.9c1.6-1.7,3.8-2.2,6.1-2.5c0.4,0,0.7-0.1,1.1-0.1
		c1.8,0,3.5-0.2,5.1-1.4c1.5-1.1,3.3-1,5.1-0.9c0.6,0,1.1-0.1,1.5-0.5c1.9-1.5,4.1-1.8,6.5-1.4c0.2,0,0.5,0.1,0.7,0.1
		c1.6,0.5,3.2,0.6,4.8-0.3c1.4-0.7,3-0.5,4.6-0.2c0.4,0.1,0.8,0.2,1.1,0.4C58.1,2,59,2.6,60,2.7c0.9,0.1,1.8-0.4,2.8-0.4
		c2.1-0.2,3.9,0.6,5.7,1.6c0.6,0.3,1,0.4,1.7,0.3c2.9-0.6,5.4,0.3,7.5,2.2c0.2,0.1,0.3,0.3,0.4,0.4c1.2,1.1,2.3,2,4.1,2
		c1.8,0,3.4,1.1,4.7,2.3c4.4,4.1,7.8,9,10.1,14.6c0.1,0.2,0.2,0.3,0.3,0.6c0.6-1.3,1.2-2.5,1.8-3.7c2.3-4.4,5.2-8.3,8.9-11.7
		c1.6-1.5,3.5-2.3,5.6-2.2c0.6,0,1-0.3,1.3-0.6c1.3-1.2,2.6-2.4,4.2-3.2c1.7-0.8,3.5-1.1,5.4-0.6c0.5,0.1,0.9,0,1.3-0.3
		c1.3-0.7,2.6-1.4,4.1-1.6c1.2-0.2,2.4-0.1,3.5,0.3c0.6,0.2,1,0.1,1.6-0.1c1.8-0.8,3.5-1.5,5.5-1.5c1.3,0,2.6,0.2,3.7,0.9
		c0.5,0.3,1,0.3,1.6,0.2c1.2-0.3,2.5-0.5,3.8-0.7c2-0.2,3.8,0.3,5.4,1.6c0.4,0.3,0.9,0.5,1.4,0.4c2.5-0.2,4.8,0.3,6.9,1.9
		c0.3,0.2,0.8,0.2,1.2,0.3c1.9,0.2,3.7,0.4,5.6,0.7c1.7,0.3,3.1,1.2,4.2,2.5c0.4,0.4,0.7,0.6,1.3,0.5c5.9-0.9,11,5.2,8.3,11.2
		C184,20.6,183.9,20.7,183.8,20.9z M139.9,9.3c-0.4,0.1-0.9,0.1-1.2,0.4c-1.5,0.9-3,1.8-4.5,2.7c-0.7,0.5-1.3,1.2-2,1.7
		c-0.7,0.5-1.1,0.4-1.5-0.4c-0.5-1-0.5-2.1,0.2-3.2c-1.6,0.5-2.7,1.6-3.7,2.6c-1.1,1-2.1,2.2-3.1,3.3c-1.8-0.9-1.6-2.5-1.2-4.3
		c-3.3,2.3-5.4,5.3-7.8,8.1c-0.2-0.2-0.4-0.4-0.4-0.5c-0.3-0.9-0.6-1.9-1-2.8c-1.6,1.4-3,2.9-4.2,4.6c-3.2,4.3-5.2,9.2-6.4,14.4
		c-0.4,1.8-0.4,3.6,0,5.3c0.9,4.1,3.4,6.9,7.1,8.8c0.7,0.4,1.2,0.2,1.7-0.3c3.6-3.2,7.6-6,11.7-8.5c3.9-2.3,7.8-4.6,11.7-6.7
		c2.3-1.2,4.7-2.2,7-3.3c4.6-2.1,9.2-4,14-5.6c0.2-0.1,0.5-0.1,0.7-0.2c-0.3,0.4-0.6,0.6-1,0.9c-4.2,2.4-8.4,4.7-12.5,7.1
		c-1.9,1.1-3.7,2.4-5.5,3.7c-3.6,2.5-7.2,5-10.7,7.7c-2.6,2-5,4.1-7.4,6.3c-1.4,1.3-2.7,2.7-4,4.1c-0.3,0.3-0.4,0.7-0.3,1.2
		c0.9,3.3,2.7,5.9,5.4,8c3.3,2.6,7.2,3.7,11.2,4.6c2.4,0.5,4.8,0.7,7.2,1.1c1.8,0.3,3.5,0,5.5-0.2c-1.2-0.9-2.7-1.1-3-2.7
		c0.2-0.1,0.3-0.2,0.5-0.3c1.1-0.2,2.3-0.4,3.4-0.4c2.6-0.1,5.1-0.6,7.6-1.3c0.3-0.1,0.5-0.3,0.9-0.5c-2.5-0.7-3.1-1.1-3.2-2.2
		c3.7-1.2,7.6-1.9,10.9-4.1c-1.6-0.1-3-0.1-4.3-1.5c3.8-1.8,7.4-3.5,10.6-6.3c-1.7-0.1-3.1,0.1-4.4-0.9c0.3-0.3,0.5-0.5,0.7-0.7
		c2.6-1.5,4.9-3.3,7-5.4c0.3-0.3,0.5-0.6,0.8-0.9c-1.6-0.2-3.1,0.4-4.5-0.7c2.8-2.5,5.5-4.8,7.6-8.1c-1.9,0.5-3.5,0.9-5.1,0.1
		c-0.1-0.7,0.1-1.1,0.7-1.6c1.6-1.3,3.1-2.7,4.6-4.2c0.6-0.6,1.2-1.4,1.4-2.3c-1.6,0-3.2,0-4.9,0c0.9-3.1,2.3-6,4.4-8.7
		c-3.9,0.4-7.6,0.3-11.4-0.2c1-1,1.9-2,2.9-3c-1-0.1-1.8-0.2-2.7-0.3c-2.7-0.1-5.3,0.4-7.9,1.2c-0.4,0.1-0.8,0.3-1.3,0.3
		c-0.7,0-0.9-0.2-0.9-0.9c0-1,0.6-1.6,1.3-2.2c0.3-0.2,0.5-0.4,0.8-0.6c-2.7,0.1-5.3,0.7-7.7,1.6c-0.4,0.2-0.9,0.4-1.4,0.5
		c-0.4,0.1-1,0.1-1.1-0.1c-0.2-0.3-0.2-0.9-0.1-1.2c0.3-0.7,0.8-1.3,1.3-1.8c0.2-0.3,0.6-0.5,0.9-0.7c-3.7,0.3-7,1.8-10,3.8
		c-0.9-0.9-1.1-1.8-0.5-2.7C139.3,10.2,139.6,9.8,139.9,9.3c0.1,0,0.2,0,0.3-0.1C140,9.2,139.9,9.2,139.9,9.3z M37.5,25.4
		c0.5,0.1,0.9,0.2,1.4,0.3c5.8,2,11.5,4.4,17,7c2.7,1.3,5.4,2.8,8,4.2c3.3,1.9,6.6,3.7,9.8,5.8c3.2,2.1,6.2,4.6,9.3,6.9
		c0.6,0.5,1.1,0.5,1.7,0.2c0.9-0.6,1.9-1,2.7-1.7c3.1-2.4,4.7-5.6,4.8-9.6c0-2.6-0.7-5.1-1.6-7.6c-1.6-4.3-3.7-8.3-6.8-11.7
		c-0.8-0.9-1.7-1.8-2.7-2.8c-0.3,1.4-0.5,2.6-1.5,3.6c-2.3-2.8-4.3-5.7-7.5-7.9c-0.1,1.6,0.4,3.3-1.6,4.1c-0.4-0.4-0.7-0.8-1.1-1.3
		c-1.4-1.6-2.9-3.1-4.7-4.2c-0.2-0.1-0.5-0.2-1-0.4c0.5,0.9,0.7,1.7,0.4,2.5c-0.6,1.7-0.9,1.8-2.3,0.7c-1.3-1.1-2.7-2.1-4.1-3.1
		c-1-0.7-2.1-1.2-3.4-1.5c1.9,2.7,2,3.1,0.7,4.3c-0.2-0.1-0.4-0.2-0.6-0.3c-2.5-1.7-5.2-2.7-8.1-3.4c-0.5-0.1-0.9-0.1-1.4-0.1
		c0,0,0-0.1,0-0.1c0,0,0,0-0.1,0c0,0,0.1,0.1,0.1,0.1c0.6,0.6,1.2,1.1,1.8,1.7c0.6,0.7,0.8,1.4,0.4,2.4c-0.5-0.1-0.9-0.2-1.4-0.3
		c-1.5-0.5-2.9-1-4.4-1.4c-1.4-0.4-2.9-0.5-4.4-0.8c0,0.1-0.1,0.1-0.1,0.2c1.3,0.9,2.7,1.7,2,3.7c-0.5-0.1-1-0.1-1.5-0.2
		c-1.3-0.3-2.6-0.7-3.9-1c-2.3-0.5-4.7-0.6-7,0c0.9,0.9,1.9,1.8,2.9,2.9c-3.9,0.6-7.5,0.6-11.2,0.3c0.9,1.5,1.8,2.8,2.5,4.2
		c0.7,1.4,1.4,2.8,1.6,4.4c-1.7,0-3.2,0-4.9,0c0.4,0.7,0.8,1.3,1.3,1.9c1.3,1.8,3.1,3.2,4.9,4.6c0.6,0.4,0.7,0.9,0.8,1.5
		c-1.7,0.9-3.3,0.4-5.2,0.1c2.2,3.2,4.8,5.6,7.6,8c-1.4,1.1-2.9,0.5-4.5,0.7c0.8,0.8,1.5,1.7,2.4,2.3c1.8,1.4,3.7,2.7,5.5,4
		c0.3,0.2,0.5,0.4,0.8,0.7c-0.3,0.2-0.5,0.3-0.7,0.4c-1.2,0.6-2.4,0.4-3.6,0.5c-0.1,0-0.1-0.1-0.2-0.1c0.1,0,0.1,0.1,0.2,0.1
		c0.2,0.2,0.4,0.5,0.6,0.7c2.7,2,5.6,3.7,8.6,5.1c0.4,0.2,0.7,0.4,1.2,0.6c-1.3,1.4-2.8,1.3-4.4,1.4c0.8,0.5,1.5,1,2.4,1.3
		c2.5,0.9,5,1.6,7.5,2.4c0.4,0.1,0.9,0.3,1.4,0.5c-0.8,1.4-2.1,1.7-3.4,2.2c0.9,0.4,1.7,0.7,2.6,0.9c2.5,0.7,5.1,0.7,7.7,1
		c0.6,0.1,1.3,0.3,2,0.4c-0.3,1.8-1.9,2-3,2.9c1,0.1,1.8,0.3,2.6,0.3c1.1,0,2.2-0.1,3.3-0.2c4.6-0.3,9.1-1.3,13.3-3
		c4.6-1.8,8-4.8,9.7-9.6c0.4-1.2,0.4-2-0.6-2.9c-0.4-0.3-0.6-0.7-1-1.1c-2.9-2.6-5.7-5.4-8.8-7.8c-4.3-3.4-8.8-6.6-13.3-9.7
		C49.6,32.2,44,29,38.3,26C38,25.9,37.7,25.6,37.5,25.4L37.5,25.4z M61.8,157.1c2-0.3,4-0.4,5.9-0.8c4.3-1.1,8.2-3.2,11.6-6
		c2.2-1.8,3.9-4,5.7-6.1c2.5-2.9,4-6.2,5.1-9.8c0.5-1.7,0.8-3.5,1.1-5.3c0.2-1.5,0.5-3,0.4-4.5c-0.1-3-0.6-5.9-1.7-8.7
		c-1.3-3.1-2.9-6-5.4-8.4c-1.4-1.3-2.8-2.4-4.5-3.4c-4.8-2.8-10.1-3.6-15.5-2.6c-4.7,0.9-9,2.7-12.7,6c-2.1,1.8-4.1,3.7-5.8,5.9
		c-2.8,3.5-4.7,7.5-5.9,11.8c-1.1,4.2-1.4,8.5-0.6,12.8c1,5.4,3.3,10.1,7.6,13.7C51.5,155.3,56.3,157,61.8,157.1z M154.1,131.9
		c-0.1-0.8-0.2-2.4-0.5-4c-0.9-5.3-2.8-10.2-6.1-14.5c-2.2-3-4.8-5.6-7.8-7.9c-0.9-0.7-1.8-1.2-2.7-1.7c-3.2-1.9-6.8-3.1-10.5-3.5
		c-5.3-0.5-10.2,0.7-14.6,3.8c-1.1,0.8-2.2,1.6-3,2.6c-2.2,3-4.3,6.1-5.1,9.8c-0.5,2.3-1,4.7-0.9,7.1c0.1,1.4,0.2,2.9,0.3,4.3
		c0,0.2,0,0.5,0.1,0.7c0.6,3,1.4,5.9,2.8,8.6c1.2,2.4,2.3,4.9,4.1,6.8c2,2.1,3.7,4.5,6.1,6.1c2.1,1.4,4.3,2.5,6.4,3.7
		c0.8,0.4,1.7,0.8,2.7,1c1.7,0.4,3.5,0.7,5.3,0.9c1,0.2,2.1,0.3,3.1,0.2c2.7-0.1,5.2-0.9,7.7-2c4.5-2,7.8-5.3,9.9-9.6
		C153.2,140.7,154,136.8,154.1,131.9z M96.5,203.6c1.3-0.1,2.5-0.2,3.8-0.4c5.3-0.7,10-2.7,14.2-5.9c3-2.4,5.4-5.2,7-8.6
		c0.6-1.3,1.3-2.7,1.7-4.1c0.9-3.5,1-7,0.6-10.7c-0.5-3.8-2.3-7-4.3-10.1c-1.6-2.5-4-4.2-6.3-6c-3.1-2.4-6.7-3.4-10.4-4.3
		c-1.1-0.3-2.2-0.5-3.3-0.5c-2.2,0-4.5,0-6.7,0.3c-4.4,0.6-8.5,2.2-12.2,4.6c-2.9,1.9-5.4,4.3-7.2,7.4c-1.6,2.6-3.2,5.3-3.5,8.4
		c-0.2,2.1-0.6,4.1-0.5,6.2c0.3,4.4,1.7,8.4,4.2,12c3.7,5.4,8.9,8.7,15.1,10.5C91.1,203.2,93.8,203.6,96.5,203.6z M169.1,179.3
		c-0.2-2.2-0.3-4.5-0.7-6.6c-0.4-2.3-1-4.5-2.2-6.5c-0.9-1.5-2.1-2.8-3.8-3.5c-3.4-1.4-6.7-0.7-9.9,0.4c-2.2,0.8-4.3,2-6.1,3.5
		c-1,0.8-1.8,1.7-2.8,2.4c-2.4,1.8-4.3,3.9-6.1,6.2c-1.4,1.9-2.7,3.9-4,5.9c-2.7,4.1-4.6,8.5-5.7,13.3c-0.7,3-1,6-0.4,9
		c0.2,0.8,0.2,1.7,0.5,2.4c0.3,0.8,0.9,1.6,1.3,2.4c1.6,2.9,4.4,3.6,7.4,3.7c1.4,0.1,2.8-0.2,4.2-0.4c2.7-0.3,5.4-1,7.9-2.1
		c4.6-2,8.8-4.7,12.1-8.5c1.6-1.9,3.1-3.8,4.2-5.9C167.6,190.2,169.2,185,169.1,179.3z M65.6,199.9c-0.1-0.8-0.3-1.8-0.5-2.9
		c-0.2-1.1-0.4-2.1-0.7-3.1c-0.3-1.2-0.7-2.5-1.2-3.6c-0.5-1.2-1.2-2.4-1.9-3.6c-0.8-1.5-1.5-3.1-2.5-4.5c-0.9-1.4-2-2.7-3.1-4
		c-1.8-2.2-3.7-4.3-5.8-6.2c-1-0.9-2-1.7-3.1-2.4c-2.1-1.2-4.2-2.5-6.5-3.3c-2.1-0.7-4.3-0.8-6.5-0.8c-0.6,0-1.2,0.1-1.8,0.2
		c-3.4,1-5.5,3.3-6.4,6.6c-1.1,4-1,8-0.4,12c0.5,3.9,1.8,7.6,3.8,11c2,3.5,4.4,6.6,7.5,9.1c4.4,3.6,9.4,6.1,15.1,7.1
		c1.5,0.2,3,0.4,4.5,0.5c1.8,0,3.6-0.3,5-1.4c2.1-1.6,3.7-3.6,4.1-6.4C65.4,203,65.5,201.6,65.6,199.9z M95.5,70.5
		c-3.3-0.1-6.9,0.7-10.5,2.1c-3.2,1.2-6.1,3-8.8,5.2c-1.5,1.2-2.9,2.6-3.8,4.3c-0.8,1.4-1.2,3-0.9,4.7c0.2,1.7,1.2,2.9,2,4.3
		c0.4,0.6,0.9,1.1,1.4,1.6c2.2,1.8,4.7,3.2,7.3,4.2c3.2,1.1,6.4,2.1,9.7,2.3c1.7,0.1,3.4,0.1,5,0.2c3.5,0.3,6.9-0.5,10.3-1.1
		c2.3-0.4,4.4-1.4,6.5-2.4c2.4-1.1,4.3-2.6,5.9-4.7c2.3-2.9,1.7-6.6,0.2-8.8c-1.7-2.6-4-4.6-6.5-6.3
		C108.2,72.4,102.4,70.4,95.5,70.5z M96.8,236.3c1.2-0.1,2.8-0.2,4.5-0.4c3.8-0.4,7.3-1.8,10.6-3.5c2.5-1.3,4.7-3,6.6-4.9
		c1.5-1.5,2.9-3.2,4.2-4.9c1-1.4,1.1-3.1,0.2-4.5c-0.9-1.3-2.1-2.5-3.6-3.2c-0.5-0.2-1.1-0.3-1.6-0.5c-3-1.3-6.1-2.2-9.4-2.6
		c-3.3-0.4-6.6-0.9-10-0.9c-1.3,0-2.5,0.3-3.8,0.2c-3.7-0.1-7.2,0.8-10.8,1.4c-2.1,0.3-3.9,1.2-5.9,1.9c-2.3,0.8-4.3,2.2-6.1,3.9
		c-1.5,1.5-1.7,3.8-0.5,5.3c1.1,1.4,2.3,2.8,3.6,4c3.6,3.4,7.7,5.8,12.4,7.2C90.2,235.7,93.3,236.2,96.8,236.3z M31.2,133
		c-0.2-2.9-0.4-5.9-0.7-8.8c-0.3-2.2-0.8-4.3-2.5-6c-1-1-1.6-1.3-2.8-0.7c-0.9,0.4-1.7,1-2.5,1.6c-4.5,3.2-7.9,7.3-10,12.4
		c-2.3,5.7-2.9,11.5-1.6,17.5c0.6,2.7,1.6,5.2,2.9,7.7c1.2,2.4,2.9,4.5,4.7,6.4c0.5,0.5,1,1.1,1.8,0.8c0.8-0.3,1.8-0.6,2.4-1.2
		c1.1-1.3,2.2-2.7,2.9-4.2c1.1-2.6,2.1-5.2,2.9-8c0.7-2.6,1.1-5.4,1.7-8.1C30.9,139.4,31,136.2,31.2,133z M160.6,129.1
		c0.2,2.5,0.4,4.9,0.7,7.4c0.4,4.1,1.1,8.1,2.1,12.1c1,4.3,2.3,8.5,4.9,12.2c0.7,0.9,1.4,1.8,2.4,2.3c0.4,0.2,0.9,0.2,1.3,0.1
		c0.4-0.1,0.8-0.5,1.2-0.8c1.9-2.1,3.8-4.3,5.1-6.9c2-4,3.2-8.2,3.3-12.7c0.1-5.2-1.1-10.1-3.6-14.7c-2.8-5.2-7-9-12.1-11.8
		c-1.2-0.7-2.6,0-3.1,1c-0.3,0.6-0.6,1.3-0.8,2C161.1,122.4,160.6,125.7,160.6,129.1z M132.2,75.8c-2-0.1-4.2,0.3-6.5,0.7
		c-1.7,0.4-1.9,0.7-1.2,2.3c0.2,0.6,0.5,1.2,0.9,1.7c0.4,0.6,1,1.2,1.4,1.8c2.8,3.7,6.3,6.8,9.5,10c3.4,3.4,7.3,6.3,11.1,9.2
		c0.7,0.5,1.3,1.1,2.1,1.6c1.7,1.1,3.4,2.2,5.1,3.3c0.9,0.6,1.8,1.2,2.7,1.7c0.8,0.5,1.6,0.9,2.5,1.2c0.7,0.2,1.4,0.4,2.1,0.5
		c1,0.1,1.2-0.1,1.2-1c0-2.1,0.2-4.2-0.1-6.3c-0.6-4.4-2-8.6-4.4-12.4c-2.8-4.5-6.6-8.1-11.3-10.7C142.7,77,137.8,75.7,132.2,75.8z
		 M28.3,105.9c0,0.6,0,1.3,0,1.9c0,1.2,0.4,1.6,1.7,1.5c0.4,0,0.9-0.2,1.3-0.4c1.7-0.8,3.5-1.3,5-2.5c1.2-1,2.8-1.6,4.1-2.5
		c1.8-1.2,3.5-2.6,5.3-3.9c6.1-4.6,11.7-9.6,17-15.1c0.7-0.8,1.2-1.7,1.9-2.4c1.2-1.3,2-2.8,2.6-4.4c0.2-0.6,0-1-0.4-1.3
		c-0.3-0.2-0.6-0.2-0.9-0.3c-2.4-0.6-4.9-0.7-7.4-0.8c-4.2-0.1-8.2,0.9-12,2.6c-6.3,2.8-11.2,7.3-14.5,13.4
		C29.6,96.1,28.3,100.9,28.3,105.9z M71.9,12.2L71.9,12.2L71.9,12.2L71.9,12.2z M168.3,50.2L168.3,50.2L168.3,50.2L168.3,50.2z"/>
	<path class="st1" d="M26.4,50.4c1.2-0.1,2.5,0.2,3.6-0.5c0.2-0.1,0.3-0.2,0.7-0.4c-0.3-0.3-0.5-0.6-0.8-0.7c-1.8-1.3-3.7-2.6-5.5-4
		c-0.8-0.6-1.5-1.5-2.4-2.3c1.5-0.2,3.1,0.4,4.5-0.7c-2.8-2.4-5.4-4.8-7.6-8c1.9,0.4,3.5,0.8,5.2-0.1c-0.1-0.6-0.3-1.1-0.8-1.5
		c-1.8-1.3-3.5-2.7-4.9-4.6c-0.4-0.6-0.8-1.2-1.3-1.9c1.7,0,3.2,0,4.9,0c-0.2-1.6-0.9-3-1.6-4.4c-0.7-1.4-1.6-2.7-2.5-4.2
		c3.7,0.3,7.3,0.3,11.2-0.3c-1.1-1.1-2-2-2.9-2.9c2.3-0.6,4.7-0.4,7,0c1.3,0.3,2.6,0.7,3.9,1c0.5,0.1,0.9,0.1,1.5,0.2
		c0.7-2-0.7-2.9-2-3.7c0-0.1,0.1-0.1,0.1-0.2c1.5,0.3,2.9,0.4,4.4,0.8c1.5,0.4,3,0.9,4.4,1.4c0.4,0.1,0.9,0.2,1.4,0.3
		c0.4-1,0.2-1.8-0.4-2.4c-0.6-0.6-1.2-1.1-1.8-1.7c0,0,0,0,0,0c0.5,0,1,0,1.4,0.1c2.9,0.7,5.6,1.8,8.1,3.4c0.2,0.1,0.4,0.2,0.6,0.3
		c1.3-1.2,1.2-1.7-0.7-4.3c1.3,0.3,2.4,0.8,3.4,1.5c1.4,1,2.8,2,4.1,3.1c1.4,1.1,1.7,1,2.3-0.7c0.3-0.8,0.1-1.6-0.4-2.5
		c0.5,0.2,0.7,0.2,1,0.4c1.8,1.1,3.3,2.6,4.7,4.2c0.4,0.4,0.7,0.8,1.1,1.3c2-0.8,1.5-2.5,1.6-4.1c3.2,2.1,5.2,5.1,7.5,7.9
		c1-0.9,1.2-2.1,1.5-3.6c1,1,1.9,1.9,2.7,2.8c3.1,3.4,5.3,7.4,6.8,11.7c0.9,2.4,1.6,4.9,1.6,7.6c0,4-1.6,7.2-4.8,9.6
		c-0.8,0.7-1.8,1.1-2.7,1.7c-0.6,0.4-1.1,0.3-1.7-0.2c-3.1-2.4-6.1-4.8-9.3-6.9c-3.1-2.1-6.5-4-9.8-5.8c-2.6-1.5-5.3-3-8-4.2
		c-5.6-2.6-11.2-5-17-7c-0.4-0.2-0.9-0.2-1.4-0.3c-0.2-0.1-0.4-0.1-0.6-0.2c0,0.1,0,0.1,0,0.2c0.2,0,0.4,0,0.6,0.1
		c0.3,0.2,0.5,0.5,0.8,0.6c5.7,3,11.4,6.1,16.7,9.8c4.6,3.1,9,6.3,13.3,9.7c3.1,2.4,5.9,5.2,8.8,7.8c0.4,0.3,0.6,0.8,1,1.1
		c1,0.8,1,1.7,0.6,2.9C77,62,73.5,65,69,66.8c-4.3,1.7-8.7,2.7-13.3,3c-1.1,0.1-2.2,0.2-3.3,0.2c-0.8,0-1.6-0.2-2.6-0.3
		c1.1-0.9,2.7-1.1,3-2.9c-0.7-0.2-1.3-0.4-2-0.4c-2.6-0.2-5.2-0.3-7.7-1c-0.9-0.2-1.7-0.5-2.6-0.9c1.3-0.5,2.6-0.7,3.4-2.2
		c-0.5-0.2-0.9-0.4-1.4-0.5c-2.5-0.8-5-1.6-7.5-2.4c-0.8-0.3-1.6-0.8-2.4-1.3c1.5-0.1,3.1,0,4.4-1.4c-0.5-0.3-0.8-0.5-1.2-0.6
		c-3.1-1.3-6-3-8.6-5.1C26.8,50.8,26.6,50.6,26.4,50.4L26.4,50.4z"/>
	<path class="st1" d="M139.9,9.3c-0.3,0.5-0.7,0.9-1,1.4c-0.6,1-0.4,1.8,0.5,2.7c3-2,6.3-3.4,10-3.8c-0.3,0.2-0.7,0.4-0.9,0.7
		c-0.5,0.6-0.9,1.2-1.3,1.8c-0.2,0.3-0.1,0.9,0.1,1.2c0.1,0.2,0.7,0.1,1.1,0.1c0.5-0.1,0.9-0.3,1.4-0.5c2.5-1,5-1.6,7.7-1.6
		c-0.3,0.2-0.5,0.4-0.8,0.6c-0.7,0.5-1.3,1.2-1.3,2.2c0,0.7,0.2,1,0.9,0.9c0.4,0,0.9-0.1,1.3-0.3c2.6-0.8,5.2-1.3,7.9-1.2
		c0.8,0,1.7,0.2,2.7,0.3c-1,1-1.9,2-2.9,3c3.8,0.5,7.5,0.6,11.4,0.2c-2.2,2.7-3.5,5.5-4.4,8.7c1.7,0,3.2,0,4.9,0
		c-0.2,0.9-0.8,1.6-1.4,2.3c-1.5,1.4-3,2.9-4.6,4.2c-0.6,0.5-0.8,0.9-0.7,1.6c1.7,0.8,3.3,0.4,5.1-0.1c-2.1,3.3-4.9,5.6-7.6,8.1
		c1.3,1.2,2.9,0.5,4.5,0.7c-0.3,0.4-0.5,0.7-0.8,0.9c-2.1,2-4.5,3.9-7,5.4c-0.3,0.1-0.4,0.4-0.7,0.7c1.3,1.1,2.7,0.9,4.4,0.9
		c-3.3,2.8-6.9,4.6-10.6,6.3c1.2,1.4,2.7,1.4,4.3,1.5c-3.3,2.2-7.2,2.8-10.9,4.1c0.1,1.1,0.7,1.6,3.2,2.2c-0.4,0.2-0.6,0.4-0.9,0.5
		c-2.5,0.8-5,1.2-7.6,1.3c-1.1,0-2.3,0.3-3.4,0.4c-0.1,0-0.3,0.1-0.5,0.3c0.3,1.6,1.8,1.9,3,2.7c-2,0.2-3.7,0.5-5.5,0.2
		c-2.4-0.4-4.8-0.6-7.2-1.1c-4-0.9-7.9-2-11.2-4.6c-2.7-2.1-4.5-4.7-5.4-8c-0.1-0.5-0.1-0.8,0.3-1.2c1.3-1.4,2.6-2.8,4-4.1
		c2.4-2.2,4.8-4.3,7.4-6.3c3.5-2.7,7.1-5.2,10.7-7.7c1.8-1.3,3.6-2.5,5.5-3.7c4.1-2.4,8.3-4.7,12.5-7.1c0.4-0.2,0.7-0.5,1-0.9
		c-0.2,0.1-0.5,0.1-0.7,0.2c-4.8,1.6-9.4,3.5-14,5.6c-2.4,1.1-4.8,2.1-7,3.3c-4,2.2-7.8,4.4-11.7,6.7c-4.1,2.5-8.1,5.3-11.7,8.5
		c-0.5,0.5-1,0.6-1.7,0.3c-3.7-1.9-6.2-4.7-7.1-8.8c-0.4-1.8-0.4-3.6,0-5.3c1.1-5.2,3.2-10.1,6.4-14.4c1.2-1.7,2.6-3.2,4.2-4.6
		c0.3,1,0.6,1.9,1,2.8c0.1,0.2,0.2,0.3,0.4,0.5c2.4-2.8,4.6-5.8,7.8-8.1c-0.3,1.8-0.5,3.4,1.2,4.3c1.1-1.1,2-2.3,3.1-3.3
		c1.1-1,2.1-2,3.7-2.6c-0.6,1.1-0.6,2.2-0.2,3.2c0.4,0.8,0.8,0.9,1.5,0.4c0.7-0.5,1.3-1.2,2-1.7c1.5-1,3-1.9,4.5-2.7
		C139,9.4,139.4,9.4,139.9,9.3C139.9,9.3,139.9,9.3,139.9,9.3z"/>
	<path class="st2" d="M61.8,157.1c-5.5-0.2-10.3-1.9-14.6-5.4c-4.3-3.6-6.6-8.2-7.6-13.7c-0.8-4.3-0.5-8.6,0.6-12.8
		c1.2-4.3,3.1-8.3,5.9-11.8c1.7-2.2,3.7-4,5.8-5.9c3.7-3.2,8-5.1,12.7-6c5.4-1,10.6-0.2,15.5,2.6c1.6,0.9,3.1,2.1,4.5,3.4
		c2.5,2.4,4.1,5.2,5.4,8.4c1.2,2.8,1.6,5.8,1.7,8.7c0.1,1.5-0.2,3-0.4,4.5c-0.3,1.8-0.6,3.5-1.1,5.3c-1.1,3.6-2.6,6.9-5.1,9.8
		c-1.8,2.1-3.5,4.3-5.7,6.1c-3.4,2.8-7.3,4.9-11.6,6C65.8,156.8,63.8,156.9,61.8,157.1z"/>
	<path class="st2" d="M154.1,131.9c-0.1,4.9-0.8,8.8-2.6,12.5c-2.1,4.4-5.4,7.7-9.9,9.6c-2.5,1.1-5,1.8-7.7,2
		c-1,0.1-2.1-0.1-3.1-0.2c-1.8-0.3-3.5-0.6-5.3-0.9c-0.9-0.2-1.8-0.5-2.7-1c-2.2-1.2-4.4-2.3-6.4-3.7c-2.4-1.6-4.1-4-6.1-6.1
		c-1.9-2-2.9-4.5-4.1-6.8c-1.4-2.7-2.2-5.6-2.8-8.6c0-0.2-0.1-0.5-0.1-0.7c-0.1-1.4-0.2-2.9-0.3-4.3c-0.1-2.4,0.3-4.8,0.9-7.1
		c0.9-3.7,2.9-6.8,5.1-9.8c0.8-1,1.9-1.8,3-2.6c4.4-3.1,9.3-4.3,14.6-3.8c3.7,0.4,7.2,1.6,10.5,3.5c0.9,0.5,1.9,1,2.7,1.7
		c3,2.3,5.6,4.9,7.8,7.9c3.2,4.3,5.1,9.2,6.1,14.5C153.9,129.5,154,131.1,154.1,131.9z"/>
	<path class="st2" d="M96.5,203.6c-2.7-0.1-5.4-0.4-7.9-1.1c-6.2-1.8-11.4-5.1-15.1-10.5c-2.5-3.6-4-7.7-4.2-12
		c-0.1-2,0.2-4.1,0.5-6.2c0.4-3.1,2-5.8,3.5-8.4c1.8-3.1,4.3-5.5,7.2-7.4c3.7-2.4,7.8-4,12.2-4.6c2.2-0.3,4.5-0.3,6.7-0.3
		c1.1,0,2.2,0.2,3.3,0.5c3.7,0.9,7.3,1.9,10.4,4.3c2.3,1.8,4.7,3.5,6.3,6c2,3.1,3.8,6.3,4.3,10.1c0.5,3.6,0.4,7.2-0.6,10.7
		c-0.4,1.4-1,2.8-1.7,4.1c-1.6,3.4-4,6.3-7,8.6c-4.2,3.3-8.9,5.3-14.2,5.9C99,203.4,97.8,203.5,96.5,203.6z"/>
	<path class="st3" d="M169.1,179.3c0.1,5.6-1.5,10.8-4.1,15.7c-1.1,2.2-2.6,4.1-4.2,5.9c-3.3,3.9-7.5,6.6-12.1,8.5
		c-2.5,1.1-5.2,1.8-7.9,2.1c-1.4,0.2-2.8,0.4-4.2,0.4c-3-0.1-5.8-0.9-7.4-3.7c-0.5-0.8-1-1.6-1.3-2.4c-0.3-0.8-0.3-1.6-0.5-2.4
		c-0.6-3-0.3-6,0.4-9c1.1-4.8,3-9.2,5.7-13.3c1.3-2,2.6-4,4-5.9c1.8-2.3,3.7-4.5,6.1-6.2c1-0.7,1.9-1.6,2.8-2.4
		c1.9-1.5,3.9-2.7,6.1-3.5c3.2-1.2,6.5-1.8,9.9-0.4c1.7,0.7,2.9,2,3.8,3.5c1.2,2,1.8,4.3,2.2,6.5
		C168.8,174.9,168.9,177.1,169.1,179.3z"/>
	<path class="st3" d="M65.6,199.9c-0.1,1.7-0.2,3.1-0.4,4.5c-0.4,2.7-2,4.7-4.1,6.4c-1.4,1.1-3.2,1.4-5,1.4c-1.5,0-3-0.2-4.5-0.5
		c-5.7-1-10.7-3.5-15.1-7.1c-3.1-2.5-5.5-5.7-7.5-9.1c-1.9-3.4-3.2-7.1-3.8-11c-0.5-4-0.6-8,0.4-12c0.9-3.4,3-5.7,6.4-6.6
		c0.6-0.2,1.2-0.2,1.8-0.2c2.2,0,4.3,0.1,6.5,0.8c2.3,0.8,4.4,2.1,6.5,3.3c1.1,0.6,2.2,1.5,3.1,2.4c2.1,1.9,4,4,5.8,6.2
		c1.1,1.3,2.2,2.6,3.1,4c0.9,1.4,1.7,3,2.5,4.5c0.6,1.2,1.3,2.4,1.9,3.6c0.5,1.2,0.8,2.4,1.2,3.6c0.3,1,0.5,2.1,0.7,3.1
		C65.3,198,65.5,199.1,65.6,199.9z"/>
	<path class="st3" d="M95.5,70.5c6.9,0,12.8,1.9,18,5.6c2.5,1.7,4.8,3.7,6.5,6.3c1.5,2.3,2.1,5.9-0.2,8.8c-1.6,2.1-3.5,3.6-5.9,4.7
		c-2.1,1-4.2,2-6.5,2.4c-3.4,0.6-6.8,1.4-10.3,1.1c-1.7-0.1-3.4-0.1-5-0.2c-3.4-0.3-6.6-1.2-9.7-2.3c-2.7-1-5.2-2.3-7.3-4.2
		c-0.5-0.5-1.1-1-1.4-1.6c-0.8-1.4-1.8-2.6-2-4.3c-0.2-1.7,0.2-3.3,0.9-4.7c0.9-1.7,2.3-3,3.8-4.3c2.7-2.2,5.6-4,8.8-5.2
		C88.5,71.2,92.1,70.4,95.5,70.5z"/>
	<path class="st3" d="M96.8,236.3c-3.6-0.1-6.6-0.6-9.6-1.5c-4.7-1.4-8.9-3.8-12.4-7.2c-1.3-1.2-2.5-2.6-3.6-4
		c-1.2-1.6-1-3.9,0.5-5.3c1.8-1.7,3.8-3,6.1-3.9c1.9-0.7,3.8-1.6,5.9-1.9c3.6-0.6,7.1-1.5,10.8-1.4c1.3,0,2.5-0.2,3.8-0.2
		c3.4-0.1,6.7,0.5,10,0.9c3.3,0.4,6.4,1.3,9.4,2.6c0.5,0.2,1.1,0.3,1.6,0.5c1.5,0.7,2.8,1.9,3.6,3.2c0.9,1.4,0.8,3.2-0.2,4.5
		c-1.3,1.7-2.7,3.4-4.2,4.9c-2,1.9-4.2,3.6-6.6,4.9c-3.3,1.7-6.8,3.1-10.6,3.5C99.7,236.1,98,236.2,96.8,236.3z"/>
	<path class="st3" d="M31.2,133c-0.2,3.2-0.3,6.4-0.9,9.5c-0.6,2.7-0.9,5.4-1.7,8.1c-0.8,2.7-1.8,5.4-2.9,8
		c-0.7,1.5-1.8,2.9-2.9,4.2c-0.5,0.6-1.5,1-2.4,1.2c-0.7,0.2-1.3-0.4-1.8-0.8c-1.9-1.9-3.5-4-4.7-6.4c-1.3-2.5-2.3-5-2.9-7.7
		c-1.3-6-0.7-11.8,1.6-17.5c2.1-5.1,5.5-9.2,10-12.4c0.8-0.6,1.6-1.2,2.5-1.6c1.2-0.6,1.9-0.3,2.8,0.7c1.7,1.7,2.2,3.8,2.5,6
		C30.8,127.1,30.9,130.1,31.2,133z"/>
	<path class="st3" d="M160.6,129.1c0-3.4,0.4-6.7,1.4-9.9c0.2-0.7,0.5-1.3,0.8-2c0.5-1,1.9-1.6,3.1-1c5.1,2.8,9.3,6.6,12.1,11.8
		c2.5,4.6,3.7,9.5,3.6,14.7c-0.1,4.5-1.3,8.7-3.3,12.7c-1.3,2.6-3.1,4.8-5.1,6.9c-0.3,0.3-0.7,0.7-1.2,0.8c-0.4,0.1-1,0.1-1.3-0.1
		c-1-0.5-1.7-1.3-2.4-2.3c-2.6-3.7-3.8-8-4.9-12.2c-1-4-1.7-8-2.1-12.1C161.1,134,160.8,131.6,160.6,129.1z"/>
	<path class="st3" d="M132.2,75.8c5.6-0.1,10.5,1.2,15,3.7c4.7,2.5,8.4,6.1,11.3,10.7c2.4,3.8,3.8,8,4.4,12.4
		c0.3,2.1,0.1,4.2,0.1,6.3c0,1-0.2,1.1-1.2,1c-0.7-0.1-1.4-0.2-2.1-0.5c-0.8-0.3-1.7-0.7-2.5-1.2c-0.9-0.5-1.8-1.2-2.7-1.7
		c-1.7-1.1-3.4-2.2-5.1-3.3c-0.7-0.5-1.4-1.1-2.1-1.6c-3.8-2.9-7.7-5.8-11.1-9.2c-3.3-3.3-6.7-6.4-9.5-10c-0.5-0.6-1-1.1-1.4-1.8
		c-0.4-0.5-0.7-1.1-0.9-1.7c-0.6-1.6-0.5-1.9,1.2-2.3C127.9,76.1,130.2,75.7,132.2,75.8z"/>
	<path class="st3" d="M28.3,105.9c0-5,1.3-9.8,3.7-14.2c3.3-6.1,8.1-10.6,14.5-13.4c3.8-1.7,7.8-2.6,12-2.6c2.5,0,4.9,0.1,7.4,0.8
		c0.3,0.1,0.6,0.1,0.9,0.3c0.5,0.3,0.7,0.7,0.4,1.3c-0.6,1.6-1.5,3.1-2.6,4.4c-0.7,0.8-1.2,1.7-1.9,2.4c-5.2,5.5-10.9,10.6-17,15.1
		c-1.8,1.3-3.5,2.7-5.3,3.9c-1.3,0.9-2.8,1.5-4.1,2.5c-1.5,1.2-3.3,1.7-5,2.5c-0.4,0.2-0.8,0.3-1.3,0.4c-1.2,0.1-1.6-0.3-1.7-1.5
		C28.3,107.2,28.3,106.6,28.3,105.9z"/>
	<path class="st1" d="M139.9,9.3c0.1,0,0.2,0,0.3-0.1C140.1,9.3,140,9.3,139.9,9.3C139.9,9.3,139.9,9.3,139.9,9.3z"/>
	<path class="st1" d="M44.9,9.6c0,0-0.1-0.1-0.1-0.1C44.8,9.5,44.8,9.5,44.9,9.6C44.9,9.5,44.9,9.5,44.9,9.6
		C44.9,9.6,44.9,9.6,44.9,9.6z"/>
	<polygon class="st1" points="71.9,12.2 71.9,12.1 71.9,12.1 	"/>
	<path class="st1" d="M26.4,50.4c-0.1,0-0.1-0.1-0.2-0.1C26.3,50.3,26.3,50.3,26.4,50.4L26.4,50.4z"/>
	<polygon class="st1" points="168.3,50.2 168.4,50.3 168.3,50.2 	"/>
	<path class="st0" d="M37.4,25.4c-0.2,0-0.4,0-0.6-0.1c0-0.1,0-0.1,0-0.2C37.1,25.2,37.3,25.3,37.4,25.4
		C37.5,25.4,37.4,25.4,37.4,25.4z"/>
</g>
<title>raspberry-pi-3-logo</title>
<g>
	<g>
		<defs>
			<rect id="SVGID_1_" x="-31.5" y="-4.4" width="257" height="257"/>
		</defs>
		<clipPath id="SVGID_2_">
			<use xlink:href="#SVGID_1_"  style="overflow:visible;"/>
		</clipPath>
		<g class="st4">
			<g>
				<g>
					<g>
						<defs>
							<rect id="SVGID_3_" x="-3.4" y="-4.4" width="198.8" height="256"/>
						</defs>
						<clipPath id="SVGID_4_">
							<use xlink:href="#SVGID_3_"  style="overflow:visible;"/>
						</clipPath>
						<g class="st5">
							<g>
								<g>
									<defs>
										<rect id="SVGID_5_" x="-3.4" y="-4.4" width="198.8" height="256"/>
									</defs>
									<clipPath id="SVGID_6_">
										<use xlink:href="#SVGID_5_"  style="overflow:visible;"/>
									</clipPath>
									<g class="st6">
										<g>
											<g>
												<defs>
													<rect id="SVGID_7_" x="-3.4" y="-4.4" width="198.8" height="256"/>
												</defs>
												<clipPath id="SVGID_8_">
													<use xlink:href="#SVGID_7_"  style="overflow:visible;"/>
												</clipPath>
												<g class="st7">
												</g>
											</g>
										</g>
									</g>
								</g>
							</g>
						</g>
					</g>
				</g>
			</g>
		</g>
	</g>
</g>
<circle id="Oval-1" class="st8" cx="155" cy="182.1" r="58.5"/>
<g>
	<path class="st9" d="M172,189.9h9v12.7h-9v17.2h-15.8v-17.2h-32.6l-0.7-9.9l33.1-52.3h16V189.9z M138.7,189.9h17.6v-28l-1,1.8
		L138.7,189.9z"/>
</g>
</svg>
