<svg width="218" height="248.6" xmlns="http://www.w3.org/2000/svg" xmlns:xlink="http://www.w3.org/1999/xlink">
 <style type="text/css">.st0{fill:#010101;}
	.st1{fill:#5CB21F;}
	.st2{fill:#D7224B;}
	.st3{fill:#D6224B;}
	.st4{clip-path:url(#SVGID_2_);}
	.st5{clip-path:url(#SVGID_4_);}
	.st6{clip-path:url(#SVGID_6_);}
	.st7{clip-path:url(#SVGID_8_);}
	.st8{fill:#FFFFFF;stroke:#000000;stroke-width:9;}
	.st9{fill:#DD3252;}</style>
 <title>raspberry-pi-3-logo</title>
 <g>
  <title>background</title>
  <rect fill="none" id="canvas_background" height="602" width="802" y="-1" x="-1"/>
 </g>
 <g>
  <title>Layer 1</title>
  <g id="svg_1">
   <path id="svg_2" d="m183.8,20.9c1.4,2.1 1.9,4.4 1.2,6.8c-0.3,1 -0.9,2 -1.3,3c-0.1,0.3 -0.3,0.8 -0.2,1.1c0.5,2.6 0.1,4.9 -1.6,7c-0.2,0.3 -0.4,0.5 -0.6,0.8c-0.7,0.7 -0.9,1.4 -0.8,2.5c0.2,2 -0.5,3.8 -1.7,5.3c-0.1,0.1 -0.2,0.2 -0.3,0.4c-1.1,1.1 -2,2.2 -2.1,3.9c-0.1,1.8 -1.2,3.2 -2.5,4.4c-1,0.8 -2,1.6 -3,2.4c-0.5,0.4 -0.9,0.8 -1,1.4c-0.5,2.1 -1.6,3.8 -3.5,5c-1.2,0.7 -2.5,1.3 -3.7,2c-0.4,0.2 -0.7,0.5 -0.9,0.8c-1.1,2.2 -2.7,3.7 -5,4.5c-0.7,0.2 -1.3,0.5 -2.1,0.7c1.2,1 2.4,1.8 3.5,2.7c3.2,2.7 6,5.8 8.2,9.4c4,6.6 6,13.7 6.1,21.4c0,1.7 0.8,3.1 2.2,4.1c5,3.6 9,8 11.8,13.5c2.3,4.5 3.8,9.3 4.2,14.4c0.6,7.1 -0.7,13.7 -3.6,20.2c-1.2,2.7 -2.9,5.2 -4.7,7.5c-0.6,0.7 -0.9,1.4 -1.1,2.3c-0.7,2.8 -1.4,5.7 -2.3,8.4c-0.5,1.6 -0.6,3.3 -0.6,5c-0.4,9 -3.6,16.9 -9.1,23.9c-5.1,6.5 -11.7,10.9 -19.5,13.6c-0.7,0.2 -1.4,0.6 -2,1c-5.9,4.3 -12.2,7.9 -19,10.6c-0.5,0.2 -1,0.6 -1.3,0.9c-3.4,3.7 -7.2,6.9 -11.7,9.2c-4.4,2.3 -9.1,3.8 -14.1,4.4c-3.5,0.4 -7,0.4 -10.5,0c-3.5,-0.4 -6.9,-1.4 -10.2,-2.7c-5.7,-2.2 -10.5,-5.7 -14.7,-10.1c-0.4,-0.4 -0.9,-0.7 -1.4,-0.9c-8.1,-3.1 -15.7,-7.4 -22.6,-12.7c-0.5,-0.4 -1.1,-0.7 -1.6,-1c-5.8,-2.5 -10.7,-6.1 -14.9,-10.9c-5.4,-6.2 -8.6,-13.4 -10,-21.4c-0.1,-0.6 -0.3,-1.2 -0.5,-1.7c-1.9,-4.7 -3.4,-9.5 -4.6,-14.4c-0.2,-0.8 -0.5,-1.5 -1,-2.1c-4.2,-5.1 -7,-10.9 -8.2,-17.4c-1.5,-8 -0.6,-15.7 2.7,-23.2c2.7,-6.2 6.9,-11.1 12.2,-15.2c1.4,-1.1 2.2,-2.6 2.2,-4.4c-0.1,-6.9 1.4,-13.5 4.5,-19.7c1.9,-3.8 4.5,-7.2 7.6,-10.2c1.9,-1.9 4,-3.6 6.2,-5c0.1,-0.1 0.2,-0.2 0.4,-0.4c-0.4,-0.2 -0.8,-0.4 -1.1,-0.5c-1.7,-0.8 -2.9,-2.1 -3.7,-3.8c-0.3,-0.6 -0.7,-1 -1.3,-1.3c-1.2,-0.6 -2.4,-1.3 -3.5,-2c-1.8,-1.2 -2.9,-2.8 -3.4,-4.9c-0.1,-0.6 -0.4,-0.9 -0.8,-1.2c-1,-0.8 -2,-1.6 -3,-2.4c-1.8,-1.5 -2.7,-3.5 -2.8,-5.8c0,-0.5 -0.2,-0.9 -0.6,-1.2c-1.2,-1.1 -2.3,-2.2 -2.8,-3.8c-0.3,-1 -0.5,-2 -0.5,-3c0.1,-1.2 -0.3,-2.1 -1,-3c-1.5,-1.7 -2.1,-3.7 -2.1,-6c0,0 0,-0.1 0,-0.1c0.5,-1.4 -0.1,-2.7 -0.7,-3.9c-1.3,-2.6 -1.2,-5.2 0.2,-7.7c0.3,-0.5 0.2,-0.8 0,-1.3c-2.2,-5.4 1.8,-10.6 6.7,-11c0.3,0 0.7,-0.1 1,0c1.1,0.3 1.8,-0.1 2.6,-0.9c1.6,-1.7 3.8,-2.2 6.1,-2.5c0.4,0 0.7,-0.1 1.1,-0.1c1.8,0 3.5,-0.2 5.1,-1.4c1.5,-1.1 3.3,-1 5.1,-0.9c0.6,0 1.1,-0.1 1.5,-0.5c1.9,-1.5 4.1,-1.8 6.5,-1.4c0.2,0 0.5,0.1 0.7,0.1c1.6,0.5 3.2,0.6 4.8,-0.3c1.4,-0.7 3,-0.5 4.6,-0.2c0.4,0.1 0.8,0.2 1.1,0.4c1,0.6 1.9,1.2 2.9,1.3c0.9,0.1 1.8,-0.4 2.8,-0.4c2.1,-0.2 3.9,0.6 5.7,1.6c0.6,0.3 1,0.4 1.7,0.3c2.9,-0.6 5.4,0.3 7.5,2.2c0.2,0.1 0.3,0.3 0.4,0.4c1.2,1.1 2.3,2 4.1,2c1.8,0 3.4,1.1 4.7,2.3c4.4,4.1 7.8,9 10.1,14.6c0.1,0.2 0.2,0.3 0.3,0.6c0.6,-1.3 1.2,-2.5 1.8,-3.7c2.3,-4.4 5.2,-8.3 8.9,-11.7c1.6,-1.5 3.5,-2.3 5.6,-2.2c0.6,0 1,-0.3 1.3,-0.6c1.3,-1.2 2.6,-2.4 4.2,-3.2c1.7,-0.8 3.5,-1.1 5.4,-0.6c0.5,0.1 0.9,0 1.3,-0.3c1.3,-0.7 2.6,-1.4 4.1,-1.6c1.2,-0.2 2.4,-0.1 3.5,0.3c0.6,0.2 1,0.1 1.6,-0.1c1.8,-0.8 3.5,-1.5 5.5,-1.5c1.3,0 2.6,0.2 3.7,0.9c0.5,0.3 1,0.3 1.6,0.2c1.2,-0.3 2.5,-0.5 3.8,-0.7c2,-0.2 3.8,0.3 5.4,1.6c0.4,0.3 0.9,0.5 1.4,0.4c2.5,-0.2 4.8,0.3 6.9,1.9c0.3,0.2 0.8,0.2 1.2,0.3c1.9,0.2 3.7,0.4 5.6,0.7c1.7,0.3 3.1,1.2 4.2,2.5c0.4,0.4 0.7,0.6 1.3,0.5c5.9,-0.9 11,5.2 8.3,11.2c0.1,0 0,0.1 -0.1,0.3zm-43.9,-11.6c-0.4,0.1 -0.9,0.1 -1.2,0.4c-1.5,0.9 -3,1.8 -4.5,2.7c-0.7,0.5 -1.3,1.2 -2,1.7c-0.7,0.5 -1.1,0.4 -1.5,-0.4c-0.5,-1 -0.5,-2.1 0.2,-3.2c-1.6,0.5 -2.7,1.6 -3.7,2.6c-1.1,1 -2.1,2.2 -3.1,3.3c-1.8,-0.9 -1.6,-2.5 -1.2,-4.3c-3.3,2.3 -5.4,5.3 -7.8,8.1c-0.2,-0.2 -0.4,-0.4 -0.4,-0.5c-0.3,-0.9 -0.6,-1.9 -1,-2.8c-1.6,1.4 -3,2.9 -4.2,4.6c-3.2,4.3 -5.2,9.2 -6.4,14.4c-0.4,1.8 -0.4,3.6 0,5.3c0.9,4.1 3.4,6.9 7.1,8.8c0.7,0.4 1.2,0.2 1.7,-0.3c3.6,-3.2 7.6,-6 11.7,-8.5c3.9,-2.3 7.8,-4.6 11.7,-6.7c2.3,-1.2 4.7,-2.2 7,-3.3c4.6,-2.1 9.2,-4 14,-5.6c0.2,-0.1 0.5,-0.1 0.7,-0.2c-0.3,0.4 -0.6,0.6 -1,0.9c-4.2,2.4 -8.4,4.7 -12.5,7.1c-1.9,1.1 -3.7,2.4 -5.5,3.7c-3.6,2.5 -7.2,5 -10.7,7.7c-2.6,2 -5,4.1 -7.4,6.3c-1.4,1.3 -2.7,2.7 -4,4.1c-0.3,0.3 -0.4,0.7 -0.3,1.2c0.9,3.3 2.7,5.9 5.4,8c3.3,2.6 7.2,3.7 11.2,4.6c2.4,0.5 4.8,0.7 7.2,1.1c1.8,0.3 3.5,0 5.5,-0.2c-1.2,-0.9 -2.7,-1.1 -3,-2.7c0.2,-0.1 0.3,-0.2 0.5,-0.3c1.1,-0.2 2.3,-0.4 3.4,-0.4c2.6,-0.1 5.1,-0.6 7.6,-1.3c0.3,-0.1 0.5,-0.3 0.9,-0.5c-2.5,-0.7 -3.1,-1.1 -3.2,-2.2c3.7,-1.2 7.6,-1.9 10.9,-4.1c-1.6,-0.1 -3,-0.1 -4.3,-1.5c3.8,-1.8 7.4,-3.5 10.6,-6.3c-1.7,-0.1 -3.1,0.1 -4.4,-0.9c0.3,-0.3 0.5,-0.5 0.7,-0.7c2.6,-1.5 4.9,-3.3 7,-5.4c0.3,-0.3 0.5,-0.6 0.8,-0.9c-1.6,-0.2 -3.1,0.4 -4.5,-0.7c2.8,-2.5 5.5,-4.8 7.6,-8.1c-1.9,0.5 -3.5,0.9 -5.1,0.1c-0.1,-0.7 0.1,-1.1 0.7,-1.6c1.6,-1.3 3.1,-2.7 4.6,-4.2c0.6,-0.6 1.2,-1.4 1.4,-2.3c-1.6,0 -3.2,0 -4.9,0c0.9,-3.1 2.3,-6 4.4,-8.7c-3.9,0.4 -7.6,0.3 -11.4,-0.2c1,-1 1.9,-2 2.9,-3c-1,-0.1 -1.8,-0.2 -2.7,-0.3c-2.7,-0.1 -5.3,0.4 -7.9,1.2c-0.4,0.1 -0.8,0.3 -1.3,0.3c-0.7,0 -0.9,-0.2 -0.9,-0.9c0,-1 0.6,-1.6 1.3,-2.2c0.3,-0.2 0.5,-0.4 0.8,-0.6c-2.7,0.1 -5.3,0.7 -7.7,1.6c-0.4,0.2 -0.9,0.4 -1.4,0.5c-0.4,0.1 -1,0.1 -1.1,-0.1c-0.2,-0.3 -0.2,-0.9 -0.1,-1.2c0.3,-0.7 0.8,-1.3 1.3,-1.8c0.2,-0.3 0.6,-0.5 0.9,-0.7c-3.7,0.3 -7,1.8 -10,3.8c-0.9,-0.9 -1.1,-1.8 -0.5,-2.7c0.5,-0.7 0.8,-1.1 1.1,-1.6c0.1,0 0.2,0 0.3,-0.1c-0.2,0 -0.3,0 -0.3,0.1zm-102.4,16.1c0.5,0.1 0.9,0.2 1.4,0.3c5.8,2 11.5,4.4 17,7c2.7,1.3 5.4,2.8 8,4.2c3.3,1.9 6.6,3.7 9.8,5.8c3.2,2.1 6.2,4.6 9.3,6.9c0.6,0.5 1.1,0.5 1.7,0.2c0.9,-0.6 1.9,-1 2.7,-1.7c3.1,-2.4 4.7,-5.6 4.8,-9.6c0,-2.6 -0.7,-5.1 -1.6,-7.6c-1.6,-4.3 -3.7,-8.3 -6.8,-11.7c-0.8,-0.9 -1.7,-1.8 -2.7,-2.8c-0.3,1.4 -0.5,2.6 -1.5,3.6c-2.3,-2.8 -4.3,-5.7 -7.5,-7.9c-0.1,1.6 0.4,3.3 -1.6,4.1c-0.4,-0.4 -0.7,-0.8 -1.1,-1.3c-1.4,-1.6 -2.9,-3.1 -4.7,-4.2c-0.2,-0.1 -0.5,-0.2 -1,-0.4c0.5,0.9 0.7,1.7 0.4,2.5c-0.6,1.7 -0.9,1.8 -2.3,0.7c-1.3,-1.1 -2.7,-2.1 -4.1,-3.1c-1,-0.7 -2.1,-1.2 -3.4,-1.5c1.9,2.7 2,3.1 0.7,4.3c-0.2,-0.1 -0.4,-0.2 -0.6,-0.3c-2.5,-1.7 -5.2,-2.7 -8.1,-3.4c-0.5,-0.1 -0.9,-0.1 -1.4,-0.1c0,0 0,-0.1 0,-0.1c0,0 0,0 -0.1,0c0,0 0.1,0.1 0.1,0.1c0.6,0.6 1.2,1.1 1.8,1.7c0.6,0.7 0.8,1.4 0.4,2.4c-0.5,-0.1 -0.9,-0.2 -1.4,-0.3c-1.5,-0.5 -2.9,-1 -4.4,-1.4c-1.4,-0.4 -2.9,-0.5 -4.4,-0.8c0,0.1 -0.1,0.1 -0.1,0.2c1.3,0.9 2.7,1.7 2,3.7c-0.5,-0.1 -1,-0.1 -1.5,-0.2c-1.3,-0.3 -2.6,-0.7 -3.9,-1c-2.3,-0.5 -4.7,-0.6 -7,0c0.9,0.9 1.9,1.8 2.9,2.9c-3.9,0.6 -7.5,0.6 -11.2,0.3c0.9,1.5 1.8,2.8 2.5,4.2c0.7,1.4 1.4,2.8 1.6,4.4c-1.7,0 -3.2,0 -4.9,0c0.4,0.7 0.8,1.3 1.3,1.9c1.3,1.8 3.1,3.2 4.9,4.6c0.6,0.4 0.7,0.9 0.8,1.5c-1.7,0.9 -3.3,0.4 -5.2,0.1c2.2,3.2 4.8,5.6 7.6,8c-1.4,1.1 -2.9,0.5 -4.5,0.7c0.8,0.8 1.5,1.7 2.4,2.3c1.8,1.4 3.7,2.7 5.5,4c0.3,0.2 0.5,0.4 0.8,0.7c-0.3,0.2 -0.5,0.3 -0.7,0.4c-1.2,0.6 -2.4,0.4 -3.6,0.5c-0.1,0 -0.1,-0.1 -0.2,-0.1c0.1,0 0.1,0.1 0.2,0.1c0.2,0.2 0.4,0.5 0.6,0.7c2.7,2 5.6,3.7 8.6,5.1c0.4,0.2 0.7,0.4 1.2,0.6c-1.3,1.4 -2.8,1.3 -4.4,1.4c0.8,0.5 1.5,1 2.4,1.3c2.5,0.9 5,1.6 7.5,2.4c0.4,0.1 0.9,0.3 1.4,0.5c-0.8,1.4 -2.1,1.7 -3.4,2.2c0.9,0.4 1.7,0.7 2.6,0.9c2.5,0.7 5.1,0.7 7.7,1c0.6,0.1 1.3,0.3 2,0.4c-0.3,1.8 -1.9,2 -3,2.9c1,0.1 1.8,0.3 2.6,0.3c1.1,0 2.2,-0.1 3.3,-0.2c4.6,-0.3 9.1,-1.3 13.3,-3c4.6,-1.8 8,-4.8 9.7,-9.6c0.4,-1.2 0.4,-2 -0.6,-2.9c-0.4,-0.3 -0.6,-0.7 -1,-1.1c-2.9,-2.6 -5.7,-5.4 -8.8,-7.8c-4.3,-3.4 -8.8,-6.6 -13.3,-9.7c-5.4,-3.4 -11,-6.6 -16.7,-9.6c-0.3,-0.1 -0.6,-0.4 -0.8,-0.6l0,0zm24.3,131.7c2,-0.3 4,-0.4 5.9,-0.8c4.3,-1.1 8.2,-3.2 11.6,-6c2.2,-1.8 3.9,-4 5.7,-6.1c2.5,-2.9 4,-6.2 5.1,-9.8c0.5,-1.7 0.8,-3.5 1.1,-5.3c0.2,-1.5 0.5,-3 0.4,-4.5c-0.1,-3 -0.6,-5.9 -1.7,-8.7c-1.3,-3.1 -2.9,-6 -5.4,-8.4c-1.4,-1.3 -2.8,-2.4 -4.5,-3.4c-4.8,-2.8 -10.1,-3.6 -15.5,-2.6c-4.7,0.9 -9,2.7 -12.7,6c-2.1,1.8 -4.1,3.7 -5.8,5.9c-2.8,3.5 -4.7,7.5 -5.9,11.8c-1.1,4.2 -1.4,8.5 -0.6,12.8c1,5.4 3.3,10.1 7.6,13.7c4.4,3.6 9.2,5.3 14.7,5.4zm92.3,-25.2c-0.1,-0.8 -0.2,-2.4 -0.5,-4c-0.9,-5.3 -2.8,-10.2 -6.1,-14.5c-2.2,-3 -4.8,-5.6 -7.8,-7.9c-0.9,-0.7 -1.8,-1.2 -2.7,-1.7c-3.2,-1.9 -6.8,-3.1 -10.5,-3.5c-5.3,-0.5 -10.2,0.7 -14.6,3.8c-1.1,0.8 -2.2,1.6 -3,2.6c-2.2,3 -4.3,6.1 -5.1,9.8c-0.5,2.3 -1,4.7 -0.9,7.1c0.1,1.4 0.2,2.9 0.3,4.3c0,0.2 0,0.5 0.1,0.7c0.6,3 1.4,5.9 2.8,8.6c1.2,2.4 2.3,4.9 4.1,6.8c2,2.1 3.7,4.5 6.1,6.1c2.1,1.4 4.3,2.5 6.4,3.7c0.8,0.4 1.7,0.8 2.7,1c1.7,0.4 3.5,0.7 5.3,0.9c1,0.2 2.1,0.3 3.1,0.2c2.7,-0.1 5.2,-0.9 7.7,-2c4.5,-2 7.8,-5.3 9.9,-9.6c1.8,-3.6 2.6,-7.5 2.7,-12.4zm-57.6,71.7c1.3,-0.1 2.5,-0.2 3.8,-0.4c5.3,-0.7 10,-2.7 14.2,-5.9c3,-2.4 5.4,-5.2 7,-8.6c0.6,-1.3 1.3,-2.7 1.7,-4.1c0.9,-3.5 1,-7 0.6,-10.7c-0.5,-3.8 -2.3,-7 -4.3,-10.1c-1.6,-2.5 -4,-4.2 -6.3,-6c-3.1,-2.4 -6.7,-3.4 -10.4,-4.3c-1.1,-0.3 -2.2,-0.5 -3.3,-0.5c-2.2,0 -4.5,0 -6.7,0.3c-4.4,0.6 -8.5,2.2 -12.2,4.6c-2.9,1.9 -5.4,4.3 -7.2,7.4c-1.6,2.6 -3.2,5.3 -3.5,8.4c-0.2,2.1 -0.6,4.1 -0.5,6.2c0.3,4.4 1.7,8.4 4.2,12c3.7,5.4 8.9,8.7 15.1,10.5c2.4,0.8 5.1,1.2 7.8,1.2zm72.6,-24.3c-0.2,-2.2 -0.3,-4.5 -0.7,-6.6c-0.4,-2.3 -1,-4.5 -2.2,-6.5c-0.9,-1.5 -2.1,-2.8 -3.8,-3.5c-3.4,-1.4 -6.7,-0.7 -9.9,0.4c-2.2,0.8 -4.3,2 -6.1,3.5c-1,0.8 -1.8,1.7 -2.8,2.4c-2.4,1.8 -4.3,3.9 -6.1,6.2c-1.4,1.9 -2.7,3.9 -4,5.9c-2.7,4.1 -4.6,8.5 -5.7,13.3c-0.7,3 -1,6 -0.4,9c0.2,0.8 0.2,1.7 0.5,2.4c0.3,0.8 0.9,1.6 1.3,2.4c1.6,2.9 4.4,3.6 7.4,3.7c1.4,0.1 2.8,-0.2 4.2,-0.4c2.7,-0.3 5.4,-1 7.9,-2.1c4.6,-2 8.8,-4.7 12.1,-8.5c1.6,-1.9 3.1,-3.8 4.2,-5.9c2.6,-4.8 4.2,-10 4.1,-15.7zm-103.5,20.6c-0.1,-0.8 -0.3,-1.8 -0.5,-2.9c-0.2,-1.1 -0.4,-2.1 -0.7,-3.1c-0.3,-1.2 -0.7,-2.5 -1.2,-3.6c-0.5,-1.2 -1.2,-2.4 -1.9,-3.6c-0.8,-1.5 -1.5,-3.1 -2.5,-4.5c-0.9,-1.4 -2,-2.7 -3.1,-4c-1.8,-2.2 -3.7,-4.3 -5.8,-6.2c-1,-0.9 -2,-1.7 -3.1,-2.4c-2.1,-1.2 -4.2,-2.5 -6.5,-3.3c-2.1,-0.7 -4.3,-0.8 -6.5,-0.8c-0.6,0 -1.2,0.1 -1.8,0.2c-3.4,1 -5.5,3.3 -6.4,6.6c-1.1,4 -1,8 -0.4,12c0.5,3.9 1.8,7.6 3.8,11c2,3.5 4.4,6.6 7.5,9.1c4.4,3.6 9.4,6.1 15.1,7.1c1.5,0.2 3,0.4 4.5,0.5c1.8,0 3.6,-0.3 5,-1.4c2.1,-1.6 3.7,-3.6 4.1,-6.4c0.2,-1.2 0.3,-2.6 0.4,-4.3zm29.9,-129.4c-3.3,-0.1 -6.9,0.7 -10.5,2.1c-3.2,1.2 -6.1,3 -8.8,5.2c-1.5,1.2 -2.9,2.6 -3.8,4.3c-0.8,1.4 -1.2,3 -0.9,4.7c0.2,1.7 1.2,2.9 2,4.3c0.4,0.6 0.9,1.1 1.4,1.6c2.2,1.8 4.7,3.2 7.3,4.2c3.2,1.1 6.4,2.1 9.7,2.3c1.7,0.1 3.4,0.1 5,0.2c3.5,0.3 6.9,-0.5 10.3,-1.1c2.3,-0.4 4.4,-1.4 6.5,-2.4c2.4,-1.1 4.3,-2.6 5.9,-4.7c2.3,-2.9 1.7,-6.6 0.2,-8.8c-1.7,-2.6 -4,-4.6 -6.5,-6.3c-5.1,-3.7 -10.9,-5.7 -17.8,-5.6zm1.3,165.8c1.2,-0.1 2.8,-0.2 4.5,-0.4c3.8,-0.4 7.3,-1.8 10.6,-3.5c2.5,-1.3 4.7,-3 6.6,-4.9c1.5,-1.5 2.9,-3.2 4.2,-4.9c1,-1.4 1.1,-3.1 0.2,-4.5c-0.9,-1.3 -2.1,-2.5 -3.6,-3.2c-0.5,-0.2 -1.1,-0.3 -1.6,-0.5c-3,-1.3 -6.1,-2.2 -9.4,-2.6c-3.3,-0.4 -6.6,-0.9 -10,-0.9c-1.3,0 -2.5,0.3 -3.8,0.2c-3.7,-0.1 -7.2,0.8 -10.8,1.4c-2.1,0.3 -3.9,1.2 -5.9,1.9c-2.3,0.8 -4.3,2.2 -6.1,3.9c-1.5,1.5 -1.7,3.8 -0.5,5.3c1.1,1.4 2.3,2.8 3.6,4c3.6,3.4 7.7,5.8 12.4,7.2c3,0.9 6.1,1.4 9.6,1.5zm-65.6,-103.3c-0.2,-2.9 -0.4,-5.9 -0.7,-8.8c-0.3,-2.2 -0.8,-4.3 -2.5,-6c-1,-1 -1.6,-1.3 -2.8,-0.7c-0.9,0.4 -1.7,1 -2.5,1.6c-4.5,3.2 -7.9,7.3 -10,12.4c-2.3,5.7 -2.9,11.5 -1.6,17.5c0.6,2.7 1.6,5.2 2.9,7.7c1.2,2.4 2.9,4.5 4.7,6.4c0.5,0.5 1,1.1 1.8,0.8c0.8,-0.3 1.8,-0.6 2.4,-1.2c1.1,-1.3 2.2,-2.7 2.9,-4.2c1.1,-2.6 2.1,-5.2 2.9,-8c0.7,-2.6 1.1,-5.4 1.7,-8.1c0.5,-3 0.6,-6.2 0.8,-9.4zm129.4,-3.9c0.2,2.5 0.4,4.9 0.7,7.4c0.4,4.1 1.1,8.1 2.1,12.1c1,4.3 2.3,8.5 4.9,12.2c0.7,0.9 1.4,1.8 2.4,2.3c0.4,0.2 0.9,0.2 1.3,0.1c0.4,-0.1 0.8,-0.5 1.2,-0.8c1.9,-2.1 3.8,-4.3 5.1,-6.9c2,-4 3.2,-8.2 3.3,-12.7c0.1,-5.2 -1.1,-10.1 -3.6,-14.7c-2.8,-5.2 -7,-9 -12.1,-11.8c-1.2,-0.7 -2.6,0 -3.1,1c-0.3,0.6 -0.6,1.3 -0.8,2c-0.9,3.1 -1.4,6.4 -1.4,9.8zm-28.4,-53.3c-2,-0.1 -4.2,0.3 -6.5,0.7c-1.7,0.4 -1.9,0.7 -1.2,2.3c0.2,0.6 0.5,1.2 0.9,1.7c0.4,0.6 1,1.2 1.4,1.8c2.8,3.7 6.3,6.8 9.5,10c3.4,3.4 7.3,6.3 11.1,9.2c0.7,0.5 1.3,1.1 2.1,1.6c1.7,1.1 3.4,2.2 5.1,3.3c0.9,0.6 1.8,1.2 2.7,1.7c0.8,0.5 1.6,0.9 2.5,1.2c0.7,0.2 1.4,0.4 2.1,0.5c1,0.1 1.2,-0.1 1.2,-1c0,-2.1 0.2,-4.2 -0.1,-6.3c-0.6,-4.4 -2,-8.6 -4.4,-12.4c-2.8,-4.5 -6.6,-8.1 -11.3,-10.7c-4.6,-2.4 -9.5,-3.7 -15.1,-3.6zm-103.9,30.1c0,0.6 0,1.3 0,1.9c0,1.2 0.4,1.6 1.7,1.5c0.4,0 0.9,-0.2 1.3,-0.4c1.7,-0.8 3.5,-1.3 5,-2.5c1.2,-1 2.8,-1.6 4.1,-2.5c1.8,-1.2 3.5,-2.6 5.3,-3.9c6.1,-4.6 11.7,-9.6 17,-15.1c0.7,-0.8 1.2,-1.7 1.9,-2.4c1.2,-1.3 2,-2.8 2.6,-4.4c0.2,-0.6 0,-1 -0.4,-1.3c-0.3,-0.2 -0.6,-0.2 -0.9,-0.3c-2.4,-0.6 -4.9,-0.7 -7.4,-0.8c-4.2,-0.1 -8.2,0.9 -12,2.6c-6.3,2.8 -11.2,7.3 -14.5,13.4c-2.4,4.4 -3.7,9.2 -3.7,14.2zm43.6,-93.7l0,0l0,0l0,0zm96.4,38l0,0l0,0l0,0z" class="st0"/>
   <path id="svg_3" d="m26.4,50.4c1.2,-0.1 2.5,0.2 3.6,-0.5c0.2,-0.1 0.3,-0.2 0.7,-0.4c-0.3,-0.3 -0.5,-0.6 -0.8,-0.7c-1.8,-1.3 -3.7,-2.6 -5.5,-4c-0.8,-0.6 -1.5,-1.5 -2.4,-2.3c1.5,-0.2 3.1,0.4 4.5,-0.7c-2.8,-2.4 -5.4,-4.8 -7.6,-8c1.9,0.4 3.5,0.8 5.2,-0.1c-0.1,-0.6 -0.3,-1.1 -0.8,-1.5c-1.8,-1.3 -3.5,-2.7 -4.9,-4.6c-0.4,-0.6 -0.8,-1.2 -1.3,-1.9c1.7,0 3.2,0 4.9,0c-0.2,-1.6 -0.9,-3 -1.6,-4.4c-0.7,-1.4 -1.6,-2.7 -2.5,-4.2c3.7,0.3 7.3,0.3 11.2,-0.3c-1.1,-1.1 -2,-2 -2.9,-2.9c2.3,-0.6 4.7,-0.4 7,0c1.3,0.3 2.6,0.7 3.9,1c0.5,0.1 0.9,0.1 1.5,0.2c0.7,-2 -0.7,-2.9 -2,-3.7c0,-0.1 0.1,-0.1 0.1,-0.2c1.5,0.3 2.9,0.4 4.4,0.8c1.5,0.4 3,0.9 4.4,1.4c0.4,0.1 0.9,0.2 1.4,0.3c0.4,-1 0.2,-1.8 -0.4,-2.4c-0.6,-0.6 -1.2,-1.1 -1.8,-1.7c0,0 0,0 0,0c0.5,0 1,0 1.4,0.1c2.9,0.7 5.6,1.8 8.1,3.4c0.2,0.1 0.4,0.2 0.6,0.3c1.3,-1.2 1.2,-1.7 -0.7,-4.3c1.3,0.3 2.4,0.8 3.4,1.5c1.4,1 2.8,2 4.1,3.1c1.4,1.1 1.7,1 2.3,-0.7c0.3,-0.8 0.1,-1.6 -0.4,-2.5c0.5,0.2 0.7,0.2 1,0.4c1.8,1.1 3.3,2.6 4.7,4.2c0.4,0.4 0.7,0.8 1.1,1.3c2,-0.8 1.5,-2.5 1.6,-4.1c3.2,2.1 5.2,5.1 7.5,7.9c1,-0.9 1.2,-2.1 1.5,-3.6c1,1 1.9,1.9 2.7,2.8c3.1,3.4 5.3,7.4 6.8,11.7c0.9,2.4 1.6,4.9 1.6,7.6c0,4 -1.6,7.2 -4.8,9.6c-0.8,0.7 -1.8,1.1 -2.7,1.7c-0.6,0.4 -1.1,0.3 -1.7,-0.2c-3.1,-2.4 -6.1,-4.8 -9.3,-6.9c-3.1,-2.1 -6.5,-4 -9.8,-5.8c-2.6,-1.5 -5.3,-3 -8,-4.2c-5.6,-2.6 -11.2,-5 -17,-7c-0.4,-0.2 -0.9,-0.2 -1.4,-0.3c-0.2,-0.1 -0.4,-0.1 -0.6,-0.2c0,0.1 0,0.1 0,0.2c0.2,0 0.4,0 0.6,0.1c0.3,0.2 0.5,0.5 0.8,0.6c5.7,3 11.4,6.1 16.7,9.8c4.6,3.1 9,6.3 13.3,9.7c3.1,2.4 5.9,5.2 8.8,7.8c0.4,0.3 0.6,0.8 1,1.1c1,0.8 1,1.7 0.6,2.9c-1.5,4.4 -5,7.4 -9.5,9.2c-4.3,1.7 -8.7,2.7 -13.3,3c-1.1,0.1 -2.2,0.2 -3.3,0.2c-0.8,0 -1.6,-0.2 -2.6,-0.3c1.1,-0.9 2.7,-1.1 3,-2.9c-0.7,-0.2 -1.3,-0.4 -2,-0.4c-2.6,-0.2 -5.2,-0.3 -7.7,-1c-0.9,-0.2 -1.7,-0.5 -2.6,-0.9c1.3,-0.5 2.6,-0.7 3.4,-2.2c-0.5,-0.2 -0.9,-0.4 -1.4,-0.5c-2.5,-0.8 -5,-1.6 -7.5,-2.4c-0.8,-0.3 -1.6,-0.8 -2.4,-1.3c1.5,-0.1 3.1,0 4.4,-1.4c-0.5,-0.3 -0.8,-0.5 -1.2,-0.6c-3.1,-1.3 -6,-3 -8.6,-5.1c-0.4,-0.2 -0.6,-0.4 -0.8,-0.6l0,0z" class="st1"/>
   <path id="svg_4" d="m139.9,9.3c-0.3,0.5 -0.7,0.9 -1,1.4c-0.6,1 -0.4,1.8 0.5,2.7c3,-2 6.3,-3.4 10,-3.8c-0.3,0.2 -0.7,0.4 -0.9,0.7c-0.5,0.6 -0.9,1.2 -1.3,1.8c-0.2,0.3 -0.1,0.9 0.1,1.2c0.1,0.2 0.7,0.1 1.1,0.1c0.5,-0.1 0.9,-0.3 1.4,-0.5c2.5,-1 5,-1.6 7.7,-1.6c-0.3,0.2 -0.5,0.4 -0.8,0.6c-0.7,0.5 -1.3,1.2 -1.3,2.2c0,0.7 0.2,1 0.9,0.9c0.4,0 0.9,-0.1 1.3,-0.3c2.6,-0.8 5.2,-1.3 7.9,-1.2c0.8,0 1.7,0.2 2.7,0.3c-1,1 -1.9,2 -2.9,3c3.8,0.5 7.5,0.6 11.4,0.2c-2.2,2.7 -3.5,5.5 -4.4,8.7c1.7,0 3.2,0 4.9,0c-0.2,0.9 -0.8,1.6 -1.4,2.3c-1.5,1.4 -3,2.9 -4.6,4.2c-0.6,0.5 -0.8,0.9 -0.7,1.6c1.7,0.8 3.3,0.4 5.1,-0.1c-2.1,3.3 -4.9,5.6 -7.6,8.1c1.3,1.2 2.9,0.5 4.5,0.7c-0.3,0.4 -0.5,0.7 -0.8,0.9c-2.1,2 -4.5,3.9 -7,5.4c-0.3,0.1 -0.4,0.4 -0.7,0.7c1.3,1.1 2.7,0.9 4.4,0.9c-3.3,2.8 -6.9,4.6 -10.6,6.3c1.2,1.4 2.7,1.4 4.3,1.5c-3.3,2.2 -7.2,2.8 -10.9,4.1c0.1,1.1 0.7,1.6 3.2,2.2c-0.4,0.2 -0.6,0.4 -0.9,0.5c-2.5,0.8 -5,1.2 -7.6,1.3c-1.1,0 -2.3,0.3 -3.4,0.4c-0.1,0 -0.3,0.1 -0.5,0.3c0.3,1.6 1.8,1.9 3,2.7c-2,0.2 -3.7,0.5 -5.5,0.2c-2.4,-0.4 -4.8,-0.6 -7.2,-1.1c-4,-0.9 -7.9,-2 -11.2,-4.6c-2.7,-2.1 -4.5,-4.7 -5.4,-8c-0.1,-0.5 -0.1,-0.8 0.3,-1.2c1.3,-1.4 2.6,-2.8 4,-4.1c2.4,-2.2 4.8,-4.3 7.4,-6.3c3.5,-2.7 7.1,-5.2 10.7,-7.7c1.8,-1.3 3.6,-2.5 5.5,-3.7c4.1,-2.4 8.3,-4.7 12.5,-7.1c0.4,-0.2 0.7,-0.5 1,-0.9c-0.2,0.1 -0.5,0.1 -0.7,0.2c-4.8,1.6 -9.4,3.5 -14,5.6c-2.4,1.1 -4.8,2.1 -7,3.3c-4,2.2 -7.8,4.4 -11.7,6.7c-4.1,2.5 -8.1,5.3 -11.7,8.5c-0.5,0.5 -1,0.6 -1.7,0.3c-3.7,-1.9 -6.2,-4.7 -7.1,-8.8c-0.4,-1.8 -0.4,-3.6 0,-5.3c1.1,-5.2 3.2,-10.1 6.4,-14.4c1.2,-1.7 2.6,-3.2 4.2,-4.6c0.3,1 0.6,1.9 1,2.8c0.1,0.2 0.2,0.3 0.4,0.5c2.4,-2.8 4.6,-5.8 7.8,-8.1c-0.3,1.8 -0.5,3.4 1.2,4.3c1.1,-1.1 2,-2.3 3.1,-3.3c1.1,-1 2.1,-2 3.7,-2.6c-0.6,1.1 -0.6,2.2 -0.2,3.2c0.4,0.8 0.8,0.9 1.5,0.4c0.7,-0.5 1.3,-1.2 2,-1.7c1.5,-1 3,-1.9 4.5,-2.7c0.2,-0.1 0.6,-0.1 1.1,-0.2c0,0 0,0 0,0z" class="st1"/>
   <path id="svg_5" d="m61.8,157.1c-5.5,-0.2 -10.3,-1.9 -14.6,-5.4c-4.3,-3.6 -6.6,-8.2 -7.6,-13.7c-0.8,-4.3 -0.5,-8.6 0.6,-12.8c1.2,-4.3 3.1,-8.3 5.9,-11.8c1.7,-2.2 3.7,-4 5.8,-5.9c3.7,-3.2 8,-5.1 12.7,-6c5.4,-1 10.6,-0.2 15.5,2.6c1.6,0.9 3.1,2.1 4.5,3.4c2.5,2.4 4.1,5.2 5.4,8.4c1.2,2.8 1.6,5.8 1.7,8.7c0.1,1.5 -0.2,3 -0.4,4.5c-0.3,1.8 -0.6,3.5 -1.1,5.3c-1.1,3.6 -2.6,6.9 -5.1,9.8c-1.8,2.1 -3.5,4.3 -5.7,6.1c-3.4,2.8 -7.3,4.9 -11.6,6c-2,0.5 -4,0.6 -6,0.8z" class="st2"/>
   <path id="svg_6" d="m154.1,131.9c-0.1,4.9 -0.8,8.8 -2.6,12.5c-2.1,4.4 -5.4,7.7 -9.9,9.6c-2.5,1.1 -5,1.8 -7.7,2c-1,0.1 -2.1,-0.1 -3.1,-0.2c-1.8,-0.3 -3.5,-0.6 -5.3,-0.9c-0.9,-0.2 -1.8,-0.5 -2.7,-1c-2.2,-1.2 -4.4,-2.3 -6.4,-3.7c-2.4,-1.6 -4.1,-4 -6.1,-6.1c-1.9,-2 -2.9,-4.5 -4.1,-6.8c-1.4,-2.7 -2.2,-5.6 -2.8,-8.6c0,-0.2 -0.1,-0.5 -0.1,-0.7c-0.1,-1.4 -0.2,-2.9 -0.3,-4.3c-0.1,-2.4 0.3,-4.8 0.9,-7.1c0.9,-3.7 2.9,-6.8 5.1,-9.8c0.8,-1 1.9,-1.8 3,-2.6c4.4,-3.1 9.3,-4.3 14.6,-3.8c3.7,0.4 7.2,1.6 10.5,3.5c0.9,0.5 1.9,1 2.7,1.7c3,2.3 5.6,4.9 7.8,7.9c3.2,4.3 5.1,9.2 6.1,14.5c0.2,1.5 0.3,3.1 0.4,3.9z" class="st2"/>
   <path id="svg_7" d="m96.5,203.6c-2.7,-0.1 -5.4,-0.4 -7.9,-1.1c-6.2,-1.8 -11.4,-5.1 -15.1,-10.5c-2.5,-3.6 -4,-7.7 -4.2,-12c-0.1,-2 0.2,-4.1 0.5,-6.2c0.4,-3.1 2,-5.8 3.5,-8.4c1.8,-3.1 4.3,-5.5 7.2,-7.4c3.7,-2.4 7.8,-4 12.2,-4.6c2.2,-0.3 4.5,-0.3 6.7,-0.3c1.1,0 2.2,0.2 3.3,0.5c3.7,0.9 7.3,1.9 10.4,4.3c2.3,1.8 4.7,3.5 6.3,6c2,3.1 3.8,6.3 4.3,10.1c0.5,3.6 0.4,7.2 -0.6,10.7c-0.4,1.4 -1,2.8 -1.7,4.1c-1.6,3.4 -4,6.3 -7,8.6c-4.2,3.3 -8.9,5.3 -14.2,5.9c-1.2,0.1 -2.4,0.2 -3.7,0.3z" class="st2"/>
   <path id="svg_8" d="m169.1,179.3c0.1,5.6 -1.5,10.8 -4.1,15.7c-1.1,2.2 -2.6,4.1 -4.2,5.9c-3.3,3.9 -7.5,6.6 -12.1,8.5c-2.5,1.1 -5.2,1.8 -7.9,2.1c-1.4,0.2 -2.8,0.4 -4.2,0.4c-3,-0.1 -5.8,-0.9 -7.4,-3.7c-0.5,-0.8 -1,-1.6 -1.3,-2.4c-0.3,-0.8 -0.3,-1.6 -0.5,-2.4c-0.6,-3 -0.3,-6 0.4,-9c1.1,-4.8 3,-9.2 5.7,-13.3c1.3,-2 2.6,-4 4,-5.9c1.8,-2.3 3.7,-4.5 6.1,-6.2c1,-0.7 1.9,-1.6 2.8,-2.4c1.9,-1.5 3.9,-2.7 6.1,-3.5c3.2,-1.2 6.5,-1.8 9.9,-0.4c1.7,0.7 2.9,2 3.8,3.5c1.2,2 1.8,4.3 2.2,6.5c0.4,2.2 0.5,4.4 0.7,6.6z" class="st3"/>
   <path id="svg_9" d="m65.6,199.9c-0.1,1.7 -0.2,3.1 -0.4,4.5c-0.4,2.7 -2,4.7 -4.1,6.4c-1.4,1.1 -3.2,1.4 -5,1.4c-1.5,0 -3,-0.2 -4.5,-0.5c-5.7,-1 -10.7,-3.5 -15.1,-7.1c-3.1,-2.5 -5.5,-5.7 -7.5,-9.1c-1.9,-3.4 -3.2,-7.1 -3.8,-11c-0.5,-4 -0.6,-8 0.4,-12c0.9,-3.4 3,-5.7 6.4,-6.6c0.6,-0.2 1.2,-0.2 1.8,-0.2c2.2,0 4.3,0.1 6.5,0.8c2.3,0.8 4.4,2.1 6.5,3.3c1.1,0.6 2.2,1.5 3.1,2.4c2.1,1.9 4,4 5.8,6.2c1.1,1.3 2.2,2.6 3.1,4c0.9,1.4 1.7,3 2.5,4.5c0.6,1.2 1.3,2.4 1.9,3.6c0.5,1.2 0.8,2.4 1.2,3.6c0.3,1 0.5,2.1 0.7,3.1c0.2,0.8 0.4,1.9 0.5,2.7z" class="st3"/>
   <path id="svg_10" d="m95.5,70.5c6.9,0 12.8,1.9 18,5.6c2.5,1.7 4.8,3.7 6.5,6.3c1.5,2.3 2.1,5.9 -0.2,8.8c-1.6,2.1 -3.5,3.6 -5.9,4.7c-2.1,1 -4.2,2 -6.5,2.4c-3.4,0.6 -6.8,1.4 -10.3,1.1c-1.7,-0.1 -3.4,-0.1 -5,-0.2c-3.4,-0.3 -6.6,-1.2 -9.7,-2.3c-2.7,-1 -5.2,-2.3 -7.3,-4.2c-0.5,-0.5 -1.1,-1 -1.4,-1.6c-0.8,-1.4 -1.8,-2.6 -2,-4.3c-0.2,-1.7 0.2,-3.3 0.9,-4.7c0.9,-1.7 2.3,-3 3.8,-4.3c2.7,-2.2 5.6,-4 8.8,-5.2c3.3,-1.4 6.9,-2.2 10.3,-2.1z" class="st3"/>
   <path id="svg_11" d="m96.8,236.3c-3.6,-0.1 -6.6,-0.6 -9.6,-1.5c-4.7,-1.4 -8.9,-3.8 -12.4,-7.2c-1.3,-1.2 -2.5,-2.6 -3.6,-4c-1.2,-1.6 -1,-3.9 0.5,-5.3c1.8,-1.7 3.8,-3 6.1,-3.9c1.9,-0.7 3.8,-1.6 5.9,-1.9c3.6,-0.6 7.1,-1.5 10.8,-1.4c1.3,0 2.5,-0.2 3.8,-0.2c3.4,-0.1 6.7,0.5 10,0.9c3.3,0.4 6.4,1.3 9.4,2.6c0.5,0.2 1.1,0.3 1.6,0.5c1.5,0.7 2.8,1.9 3.6,3.2c0.9,1.4 0.8,3.2 -0.2,4.5c-1.3,1.7 -2.7,3.4 -4.2,4.9c-2,1.9 -4.2,3.6 -6.6,4.9c-3.3,1.7 -6.8,3.1 -10.6,3.5c-1.6,0.2 -3.3,0.3 -4.5,0.4z" class="st3"/>
   <path id="svg_12" d="m31.2,133c-0.2,3.2 -0.3,6.4 -0.9,9.5c-0.6,2.7 -0.9,5.4 -1.7,8.1c-0.8,2.7 -1.8,5.4 -2.9,8c-0.7,1.5 -1.8,2.9 -2.9,4.2c-0.5,0.6 -1.5,1 -2.4,1.2c-0.7,0.2 -1.3,-0.4 -1.8,-0.8c-1.9,-1.9 -3.5,-4 -4.7,-6.4c-1.3,-2.5 -2.3,-5 -2.9,-7.7c-1.3,-6 -0.7,-11.8 1.6,-17.5c2.1,-5.1 5.5,-9.2 10,-12.4c0.8,-0.6 1.6,-1.2 2.5,-1.6c1.2,-0.6 1.9,-0.3 2.8,0.7c1.7,1.7 2.2,3.8 2.5,6c0.4,2.8 0.5,5.8 0.8,8.7z" class="st3"/>
   <path id="svg_13" d="m160.6,129.1c0,-3.4 0.4,-6.7 1.4,-9.9c0.2,-0.7 0.5,-1.3 0.8,-2c0.5,-1 1.9,-1.6 3.1,-1c5.1,2.8 9.3,6.6 12.1,11.8c2.5,4.6 3.7,9.5 3.6,14.7c-0.1,4.5 -1.3,8.7 -3.3,12.7c-1.3,2.6 -3.1,4.8 -5.1,6.9c-0.3,0.3 -0.7,0.7 -1.2,0.8c-0.4,0.1 -1,0.1 -1.3,-0.1c-1,-0.5 -1.7,-1.3 -2.4,-2.3c-2.6,-3.7 -3.8,-8 -4.9,-12.2c-1,-4 -1.7,-8 -2.1,-12.1c-0.2,-2.4 -0.5,-4.8 -0.7,-7.3z" class="st3"/>
   <path id="svg_14" d="m132.2,75.8c5.6,-0.1 10.5,1.2 15,3.7c4.7,2.5 8.4,6.1 11.3,10.7c2.4,3.8 3.8,8 4.4,12.4c0.3,2.1 0.1,4.2 0.1,6.3c0,1 -0.2,1.1 -1.2,1c-0.7,-0.1 -1.4,-0.2 -2.1,-0.5c-0.8,-0.3 -1.7,-0.7 -2.5,-1.2c-0.9,-0.5 -1.8,-1.2 -2.7,-1.7c-1.7,-1.1 -3.4,-2.2 -5.1,-3.3c-0.7,-0.5 -1.4,-1.1 -2.1,-1.6c-3.8,-2.9 -7.7,-5.8 -11.1,-9.2c-3.3,-3.3 -6.7,-6.4 -9.5,-10c-0.5,-0.6 -1,-1.1 -1.4,-1.8c-0.4,-0.5 -0.7,-1.1 -0.9,-1.7c-0.6,-1.6 -0.5,-1.9 1.2,-2.3c2.3,-0.5 4.6,-0.9 6.6,-0.8z" class="st3"/>
   <path id="svg_15" d="m28.3,105.9c0,-5 1.3,-9.8 3.7,-14.2c3.3,-6.1 8.1,-10.6 14.5,-13.4c3.8,-1.7 7.8,-2.6 12,-2.6c2.5,0 4.9,0.1 7.4,0.8c0.3,0.1 0.6,0.1 0.9,0.3c0.5,0.3 0.7,0.7 0.4,1.3c-0.6,1.6 -1.5,3.1 -2.6,4.4c-0.7,0.8 -1.2,1.7 -1.9,2.4c-5.2,5.5 -10.9,10.6 -17,15.1c-1.8,1.3 -3.5,2.7 -5.3,3.9c-1.3,0.9 -2.8,1.5 -4.1,2.5c-1.5,1.2 -3.3,1.7 -5,2.5c-0.4,0.2 -0.8,0.3 -1.3,0.4c-1.2,0.1 -1.6,-0.3 -1.7,-1.5c0,-0.6 0,-1.2 0,-1.9z" class="st3"/>
   <path id="svg_16" d="m139.9,9.3c0.1,0 0.2,0 0.3,-0.1c-0.1,0.1 -0.2,0.1 -0.3,0.1c0,0 0,0 0,0z" class="st1"/>
   <path id="svg_17" d="m44.9,9.6c0,0 -0.1,-0.1 -0.1,-0.1c0,0 0,0 0.1,0.1c0,-0.1 0,-0.1 0,0c0,0 0,0 0,0z" class="st1"/>
   <polygon id="svg_18" points="71.9,12.2 71.9,12.1 71.9,12.1  " class="st1"/>
   <path id="svg_19" d="m26.4,50.4c-0.1,0 -0.1,-0.1 -0.2,-0.1c0.1,0 0.1,0 0.2,0.1l0,0z" class="st1"/>
   <polygon id="svg_20" points="168.3,50.2 168.4,50.3 168.3,50.2  " class="st1"/>
   <path id="svg_21" d="m37.4,25.4c-0.2,0 -0.4,0 -0.6,-0.1c0,-0.1 0,-0.1 0,-0.2c0.3,0.1 0.5,0.2 0.6,0.3c0.1,0 0,0 0,0z" class="st0"/>
  </g>
  <g id="svg_22">
   <g id="svg_23">
    <defs>
     <rect height="257" width="257" y="-4.4" x="-31.5" id="SVGID_1_"/>
    </defs>
    <clipPath id="SVGID_2_">
     <use id="svg_24" xlink:href="#SVGID_1_"/>
    </clipPath>
    <g id="svg_25" class="st4">
     <g id="svg_26">
      <g id="svg_27">
       <g id="svg_28">
        <defs>
         <rect height="256" width="198.8" y="-4.4" x="-3.4" id="SVGID_3_"/>
        </defs>
        <clipPath id="SVGID_4_">
         <use id="svg_29" xlink:href="#SVGID_3_"/>
        </clipPath>
        <g id="svg_30" class="st5">
         <g id="svg_31">
          <g id="svg_32">
           <defs>
            <rect height="256" width="198.8" y="-4.4" x="-3.4" id="SVGID_5_"/>
           </defs>
           <clipPath id="SVGID_6_">
            <use id="svg_33" xlink:href="#SVGID_5_"/>
           </clipPath>
           <g id="svg_34" class="st6">
            <g id="svg_35">
             <g id="svg_36">
              <defs>
               <rect height="256" width="198.8" y="-4.4" x="-3.4" id="SVGID_7_"/>
              </defs>
              <clipPath id="SVGID_8_">
               <use id="svg_37" xlink:href="#SVGID_7_"/>
              </clipPath>
              <g id="svg_38" class="st7"/>
             </g>
            </g>
           </g>
          </g>
         </g>
        </g>
       </g>
      </g>
     </g>
    </g>
   </g>
  </g>
  <circle r="58.5" cy="182.1" cx="155" class="st8" id="Oval-1"/>
  <g id="svg_39">
   <path id="svg_40" d="m172,189.9l9,0l0,12.7l-9,0l0,17.2l-15.8,0l0,-17.2l-32.6,0l-0.7,-9.9l33.1,-52.3l16,0l0,49.5zm-33.3,0l17.6,0l0,-28l-1,1.8l-16.6,26.2z" class="st9"/>
  </g>
  <ellipse ry="45.5" rx="44" id="svg_43" cy="181.79999" cx="154.5" stroke-width="null" fill="white"/>
  <text xml:space="preserve" text-anchor="start" font-family="Helvetica, Arial, sans-serif" font-size="12" id="svg_47" y="183.29999" x="132.5" stroke-width="0" fill="#000000"/>
  <text font-weight="bold" transform="matrix(4.90373, 0, 0, 4.32124, -487.426, -619.253)" xml:space="preserve" text-anchor="start" font-family="Helvetica, Arial, sans-serif" font-size="12" id="svg_48" y="190.37764" x="121.00263" stroke-width="0" fill="#c51a4a">400</text>
 </g>
</svg>