<?xml version="1.0" encoding="utf-8"?>
<!-- Generator: Adobe Illustrator 23.0.2, SVG Export Plug-In . SVG Version: 6.00 Build 0)  -->
<svg version="1.1" id="Layer_1" xmlns="http://www.w3.org/2000/svg" xmlns:xlink="http://www.w3.org/1999/xlink" x="0px" y="0px"
	 viewBox="0 0 112 150" style="enable-background:new 0 0 112 150;" xml:space="preserve">
<style type="text/css">
	.st0{fill:#FF660F;}
	.st1{fill:#0A0A09;}
	.st2{enable-background:new    ;}
</style>
<path class="st0" d="M36.6,47.3c-0.9-0.1-2-0.1-4.3-0.2c-2.4-0.1-4.6-0.5-5-1s-1.2-3.3-1.8-6.3c-0.6-3-1.6-6-2.1-6.5
	c-0.6-0.6-2.7-1.2-5.3-1.4l-4.3-0.3v-3.8V24l5.1-0.4c5.9-0.5,7.4-1.5,7.4-5.2s-1.5-4.7-7.6-5.1L13.4,13l0-4l0.2-3.8l7,0.1
	c8,0.2,10.9,1.2,13.4,4.9c1.2,1.8,1.6,3.3,1.6,6.8c0,4.3-0.1,4.6-2.6,7.1l-2.6,2.6l1.6,2.1c1,1.2,1.4,3.4,1.8,4.8
	c0.3,1.5,0.4,2.2,0.6,3c0.8,2.5,1.2,4.6,1.9,7.3c0.3,1.3,0.6,2,0.7,2.4c0.2,0.7,0.3,0.8-0.1,0.8L36.6,47.3z M2.7,46.5
	c-0.1-0.4-0.1-9.8,0-20.9L2.8,5.4L7,5.2c2.5-0.1,4.5,0.1,4.8,0.5c0.7,0.8,0.9,38.7,0.2,40.4c-0.3,0.8-1.5,1.1-4.8,1.1
	C4.9,47.2,2.8,46.9,2.7,46.5z M44.3,46.7c-2.1-0.5-2.8-1.5-1.5-2c1.6-0.6,1.5-1.7-0.2-1.7c-0.7,0-1.5-0.4-1.8-0.9
	c-0.2-0.5-0.3-0.2-0.1,0.7s0,1.6-0.3,1.6s-0.4,0.5-0.2,1c0.5,1.3-0.7,1.4-1.8,0.1c-1.2-1.4-1-33.7,0.1-34.2c0.6-0.2,0.6-0.5,0-1.2
	c-0.5-0.5-0.9-1.8-0.9-2.8c0-1.9,0.1-1.9,4.9-1.9h4.9l-0.2,20.7c-0.1,13.1-0.4,20.7-0.9,20.8C46.1,47,45.1,46.9,44.3,46.7L44.3,46.7
	z M42.2,17.7c-0.3-0.4-0.7-0.3-1,0.3c-1,1.5-0.7,2.2,0.4,1.3C42.1,18.8,42.4,18.1,42.2,17.7z M39.8,16.9c0-0.2-0.3-0.5-0.7-0.7
	s-0.7-0.1-0.7,0.3s0.3,0.7,0.7,0.7C39.5,17.2,39.8,17.1,39.8,16.9z M41.2,7.7c0-0.6-0.4-1-0.8-0.8c-1.3,0.4-1.5,1.9-0.3,1.9
	C40.7,8.8,41.2,8.3,41.2,7.7z M49.2,46.5c-0.7-1.2-0.1-5.1,1-6.5c0.9-1.1,2.2-1.2,10-1.1l9,0.1L69,42.9l-0.2,3.9L60.9,47
	c-6.9,0.1-7.9,0-8.3-1c-1-3.2-1.7-3.9-1.3-1.4c0.3,2,0.2,2.6-0.6,2.6C50.1,47.2,49.5,46.9,49.2,46.5L49.2,46.5z M80,30.6
	c-3.4-9.1-6.9-18.5-7.8-20.9l-1.6-4.4h4.7H80l4.7,12.5l4.7,12.5v8.5c0,8.4,0,8.5-1.6,8.5C86.3,47.2,85.6,45.8,80,30.6L80,30.6z
	 M90.8,39.1l-0.1-8.2l4.7-12.8l4.7-12.8h4.8c4.3,0,4.7,0.1,4.3,1.2c-0.3,0.7-2.3,6.2-4.6,12.4C94.1,47.6,94.5,46.8,92.6,47L91,47.3
	L90.8,39.1L90.8,39.1z M48.9,25.3c0-3,0.2-3.8,1.2-4c2.2-0.6,15.1-0.5,16.1,0.1c0.6,0.4,0.8,1.7,0.7,4l-0.2,3.4l-8.9,0.1L48.9,29
	V25.3z M48.9,9.2V5.3h9.8h9.8v3.8V13h-9.8h-9.8V9.2z"/>
<g>
	<path class="st0" d="M34.1,98.9c-0.8-4.2-0.5-15.3,0.4-15.3c0.7,0,0.7-0.1,0-0.6c-1.1-0.7-1-23.3,0.1-24c1.5-1,7.3-0.6,8.4,0.6
		c1.7,1.7,1.5,21.6-0.2,23.5c-0.9,1-1,1.2-0.1,1s0,1.2,1,8.2v8.4l-4.6,0.2l-4.6,0.2L34.1,98.9z"/>
	<path class="st0" d="M68.6,100.1c0-0.4-0.1-2.8-0.3-5.3c-0.1-2.5,0-5.1,0.4-5.8c0.4-0.7,0.4-1.2,0.1-1.2s-0.6-6.4-0.5-14.1V59.6
		l5-0.2l5-0.2l-0.2,19.4c-0.1,10.7-0.3,20.1-0.3,20.9c-0.1,1.3-0.5,1.5-4.6,1.5C70.3,100.9,68.6,100.6,68.6,100.1L68.6,100.1z"/>
	<path class="st0" d="M45.3,85.9c-0.7-0.7-0.6-6,0.2-7.1c0.4-0.7,1.6-0.9,4-0.6c6,0.5,9.4-3.6,6.9-8.4c-1.1-2.2-2.4-2.7-8.4-3
		l-2.8-0.2L45,62.9c-0.2-3.4-0.1-3.7,1.6-4.1c2.9-0.7,10.9,0.3,14.2,1.9c2.4,1.2,3.4,2.2,4.7,5c3.8,8.3,0.1,17.8-7.8,19.9
		C54.7,86.5,46.1,86.7,45.3,85.9L45.3,85.9z"/>
</g>
<g>
	<path id="path20" class="st1" d="M86.1,143.9c0-0.1,3.1-3.9,3.3-4c0.1,0,0.6-0.2,1.2-0.4c2.9-0.7,4.2-1.3,6.1-2.9
		c1.9-1.5,3.4-3.5,3.8-5.2c0.4-1.4,0.1-2.2-0.9-2.5c-0.6-0.2-1.9-0.2-2.8,0c-0.6,0.1-1.1,0.2-3.9,1c-1.8,0.5-1.7,0.5-1.7,0.3
		c0-0.1,1.9-2.4,4.3-5.3c2.3-2.8,4.3-5.2,4.3-5.3c0-0.1,0-0.1-0.1-0.1c-0.1,0-2.1,0.3-4.4,0.7c-2.4,0.4-4.4,0.7-4.4,0.7
		c0,0-0.1,0-0.1-0.1c0-0.1,3.2-4,3.3-4c0.2,0,14-2.3,14.1-2.3c0,0,0.1,0,0,0.1c0,0.1-1.8,2.3-4.1,5.1c-2.2,2.7-4,5-4,5.1
		c0,0.1,0.1,0.1,0.5,0.2c2.2,0.2,3.8,1.5,4.2,3.3c0.3,1.5-0.1,3.4-1.1,5.4c-1.4,2.7-3.9,5.1-7.2,7c-2.3,1.3-5.7,2.4-9.1,3
		C86.2,144.1,86.1,144.1,86.1,143.9L86.1,143.9z"/>
	<g class="st2">
		<path d="M14.9,142.5c-1.9,0-3.6-0.3-5.1-0.9c-1.5-0.6-2.8-1.4-3.9-2.6c-1.1-1.1-1.9-2.5-2.4-4.2c-0.6-1.6-0.8-3.5-0.8-5.6
			c0-2.1,0.3-4,1-5.6c0.6-1.6,1.5-3,2.7-4.2c1.1-1.1,2.4-2,4-2.6c1.5-0.6,3.1-0.9,4.9-0.9c1.1,0,2,0.1,2.9,0.2
			c0.9,0.2,1.6,0.3,2.2,0.5c0.6,0.2,1.2,0.4,1.6,0.6c0.4,0.2,0.7,0.4,0.9,0.5l-1.4,3.8c-0.6-0.4-1.4-0.7-2.5-1
			c-1.1-0.3-2.3-0.5-3.5-0.5c-1.1,0-2.1,0.2-3.1,0.6c-1,0.4-1.8,0.9-2.5,1.7c-0.7,0.8-1.2,1.7-1.6,2.9c-0.4,1.1-0.6,2.5-0.6,4
			c0,1.3,0.2,2.6,0.5,3.7c0.3,1.1,0.8,2.1,1.4,2.9c0.6,0.8,1.4,1.5,2.4,1.9c1,0.5,2.2,0.7,3.5,0.7c1.6,0,3-0.2,4-0.5
			c1-0.3,1.8-0.6,2.4-0.9l1.2,3.8c-0.3,0.2-0.7,0.4-1.2,0.6c-0.5,0.2-1.1,0.4-1.8,0.6c-0.7,0.2-1.5,0.3-2.3,0.4
			C16.8,142.4,15.9,142.5,14.9,142.5z"/>
		<path d="M43.6,132.3c0,1.5-0.2,2.9-0.7,4.1c-0.4,1.2-1.1,2.3-1.9,3.2c-0.8,0.9-1.8,1.6-2.9,2.1c-1.1,0.5-2.4,0.7-3.8,0.7
			c-1.4,0-2.6-0.2-3.7-0.7c-1.1-0.5-2.1-1.2-2.9-2.1s-1.4-1.9-1.9-3.2c-0.5-1.2-0.7-2.6-0.7-4.1c0-1.5,0.2-2.9,0.7-4.1
			c0.5-1.2,1.1-2.3,1.9-3.2c0.8-0.9,1.8-1.6,2.9-2c1.1-0.5,2.4-0.7,3.7-0.7c1.3,0,2.6,0.2,3.7,0.7c1.1,0.5,2.1,1.2,2.9,2
			c0.8,0.9,1.4,1.9,1.9,3.2C43.4,129.4,43.6,130.8,43.6,132.3z M39.1,132.3c0-1.9-0.4-3.4-1.2-4.5c-0.8-1.1-2-1.7-3.4-1.7
			c-1.5,0-2.6,0.6-3.4,1.7c-0.8,1.1-1.2,2.6-1.2,4.5c0,1.9,0.4,3.5,1.2,4.6c0.8,1.1,2,1.7,3.4,1.7c1.5,0,2.6-0.6,3.4-1.7
			C38.7,135.8,39.1,134.3,39.1,132.3z"/>
		<path d="M59.1,126.8c-0.4-0.1-0.9-0.3-1.5-0.4c-0.6-0.1-1.4-0.2-2.3-0.2c-0.5,0-1,0-1.6,0.1c-0.6,0.1-0.9,0.2-1.2,0.3v15.4h-4.4
			v-18.3c0.9-0.3,1.9-0.6,3.2-0.9c1.3-0.3,2.7-0.4,4.3-0.4c0.3,0,0.6,0,1,0.1c0.4,0,0.8,0.1,1.2,0.1c0.4,0.1,0.8,0.1,1.1,0.2
			c0.4,0.1,0.7,0.2,0.9,0.2L59.1,126.8z"/>
		<path d="M61.9,132.4c0-1.7,0.3-3.2,0.8-4.4c0.5-1.3,1.2-2.3,2-3.2c0.8-0.8,1.8-1.5,2.9-1.9c1.1-0.4,2.2-0.6,3.3-0.6
			c2.6,0,4.7,0.8,6.2,2.5c1.5,1.6,2.2,4.1,2.2,7.3c0,0.2,0,0.5,0,0.8c0,0.3,0,0.6-0.1,0.8H66.5c0.1,1.5,0.7,2.7,1.6,3.6
			c1,0.8,2.4,1.3,4.2,1.3c1.1,0,2.1-0.1,3-0.3c0.9-0.2,1.6-0.4,2.1-0.6l0.6,3.6c-0.2,0.1-0.6,0.3-1,0.4c-0.4,0.1-0.9,0.3-1.5,0.4
			c-0.6,0.1-1.1,0.2-1.8,0.3c-0.6,0.1-1.3,0.1-1.9,0.1c-1.7,0-3.2-0.3-4.4-0.8c-1.2-0.5-2.3-1.2-3.1-2.1c-0.8-0.9-1.4-1.9-1.8-3.2
			C62.1,135.2,61.9,133.9,61.9,132.4z M74.8,130.5c0-0.6-0.1-1.2-0.3-1.7c-0.2-0.5-0.4-1-0.8-1.4c-0.3-0.4-0.7-0.7-1.2-1
			c-0.5-0.2-1-0.3-1.7-0.3c-0.7,0-1.3,0.1-1.8,0.4c-0.5,0.3-0.9,0.6-1.3,1c-0.4,0.4-0.6,0.9-0.8,1.4c-0.2,0.5-0.3,1.1-0.4,1.7H74.8z
			"/>
	</g>
</g>
</svg>
