<?xml version="1.0" encoding="utf-8"?>
<!-- Generator: Adobe Illustrator 23.1.1, SVG Export Plug-In . SVG Version: 6.00 Build 0)  -->
<svg version="1.1" id="Layer_1" xmlns="http://www.w3.org/2000/svg" xmlns:xlink="http://www.w3.org/1999/xlink" x="0px" y="0px"
	 viewBox="0 0 56.7 68" style="enable-background:new 0 0 56.7 68;" xml:space="preserve">
<style type="text/css">
	.st0{fill:#474747;}
	.st1{font-family:'SourceSansPro-SemiBold';}
	.st2{font-size:13.983px;}
	.st3{fill:#FF660F;}
</style>
<text transform="matrix(1 0 0 1 4.3905 63.654)" class="st0 st1 st2">connect</text>
<g>
	<path class="st3" d="M19.1,21.6c-0.4,0-1,0-2-0.1c-1.1,0-2.2-0.2-2.4-0.5c-0.2-0.2-0.6-1.6-0.9-3c-0.3-1.4-0.8-2.9-1-3.1
		c-0.3-0.3-1.3-0.6-2.5-0.7l-2-0.1v-1.8v-1.8l2.4-0.2c2.8-0.2,3.5-0.7,3.5-2.5s-0.7-2.2-3.6-2.4L8.1,5.2V3.3l0.1-1.8l3.3,0
		c3.8,0.1,5.2,0.6,6.4,2.3c0.6,0.9,0.8,1.6,0.8,3.2c0,2,0,2.2-1.2,3.4l-1.2,1.2l0.8,1c0.5,0.6,0.7,1.6,0.9,2.3
		c0.1,0.7,0.2,1,0.3,1.4c0.4,1.2,0.6,2.2,0.9,3.5c0.1,0.6,0.3,1,0.3,1.1c0.1,0.3,0.1,0.4,0,0.4L19.1,21.6z M3,21.2
		c0-0.2,0-4.7,0-9.9l0-9.6l2-0.1c1.2,0,2.1,0,2.3,0.2C7.7,2.2,7.8,20.2,7.4,21c-0.1,0.4-0.7,0.5-2.3,0.5C4.1,21.5,3.1,21.4,3,21.2z
		 M22.8,21.3c-1-0.2-1.3-0.7-0.7-1c0.8-0.3,0.7-0.8-0.1-0.8c-0.3,0-0.7-0.2-0.9-0.4c-0.1-0.2-0.1-0.1,0,0.3c0.1,0.4,0,0.8-0.1,0.8
		c-0.1,0-0.2,0.2-0.1,0.5c0.2,0.6-0.3,0.7-0.9,0c-0.6-0.7-0.5-16,0-16.3c0.3-0.1,0.3-0.2,0-0.6c-0.2-0.2-0.4-0.9-0.4-1.3
		c0-0.9,0-0.9,2.3-0.9h2.3l-0.1,9.8c0,6.2-0.2,9.8-0.4,9.9C23.7,21.4,23.2,21.4,22.8,21.3L22.8,21.3z M21.8,7.5
		c-0.1-0.2-0.3-0.1-0.5,0.1c-0.5,0.7-0.3,1,0.2,0.6C21.8,8,21.9,7.7,21.8,7.5z M20.7,7.1c0-0.1-0.1-0.2-0.3-0.3
		c-0.2-0.1-0.3,0-0.3,0.1s0.1,0.3,0.3,0.3C20.5,7.2,20.7,7.2,20.7,7.1z M21.3,2.7c0-0.3-0.2-0.5-0.4-0.4c-0.6,0.2-0.7,0.9-0.1,0.9
		C21.1,3.2,21.3,3,21.3,2.7z M25.1,21.2c-0.3-0.6,0-2.4,0.5-3.1c0.4-0.5,1-0.6,4.8-0.5l4.3,0l-0.1,1.9l-0.1,1.9l-3.8,0.1
		c-3.3,0-3.8,0-3.9-0.5c-0.5-1.5-0.8-1.9-0.6-0.7c0.1,1,0.1,1.2-0.3,1.2C25.6,21.5,25.3,21.4,25.1,21.2L25.1,21.2z M39.8,13.6
		c-1.6-4.3-3.3-8.8-3.7-9.9l-0.8-2.1h2.2h2.2L42,7.5l2.2,5.9v4c0,4,0,4-0.8,4C42.8,21.5,42.4,20.8,39.8,13.6L39.8,13.6z M44.9,17.7
		l0-3.9l2.2-6.1l2.2-6.1h2.3c2,0,2.2,0,2,0.6c-0.1,0.3-1.1,2.9-2.2,5.9c-5,13.7-4.8,13.3-5.7,13.4L45,21.6L44.9,17.7L44.9,17.7z
		 M25,11.1c0-1.4,0.1-1.8,0.6-1.9c1-0.3,7.2-0.2,7.7,0c0.3,0.2,0.4,0.8,0.3,1.9l-0.1,1.6l-4.2,0l-4.2,0V11.1z M25,3.4V1.6h4.7h4.7
		v1.8v1.9h-4.7H25V3.4z"/>
	<g>
		<path class="st3" d="M17.9,46.1c-0.4-2-0.2-7.3,0.2-7.3c0.3,0,0.3,0,0-0.3c-0.5-0.3-0.5-11.1,0-11.4c0.7-0.5,3.5-0.3,4,0.3
			c0.8,0.8,0.7,10.3-0.1,11.2c-0.4,0.5-0.5,0.6,0,0.5s0,0.6,0.5,3.9v4l-2.2,0.1l-2.2,0.1L17.9,46.1z"/>
		<path class="st3" d="M34.4,46.7c0-0.2,0-1.3-0.1-2.5c0-1.2,0-2.4,0.2-2.8c0.2-0.3,0.2-0.6,0-0.6c-0.1,0-0.3-3-0.2-6.7v-6.7
			l2.4-0.1l2.4-0.1l-0.1,9.2c0,5.1-0.1,9.6-0.1,9.9c0,0.6-0.2,0.7-2.2,0.7C35.2,47.1,34.4,46.9,34.4,46.7L34.4,46.7z"/>
		<path class="st3" d="M23.3,39.9c-0.3-0.3-0.3-2.9,0.1-3.4c0.2-0.3,0.8-0.4,1.9-0.3c2.9,0.2,4.5-1.7,3.3-4c-0.5-1-1.1-1.3-4-1.4
			l-1.3-0.1L23.1,29c-0.1-1.6,0-1.8,0.8-2c1.4-0.3,5.2,0.1,6.8,0.9c1.1,0.6,1.6,1,2.2,2.4c1.8,3.9,0,8.5-3.7,9.5
			C27.7,40.2,23.7,40.3,23.3,39.9L23.3,39.9z"/>
	</g>
</g>
</svg>
