<?xml version="1.0" encoding="utf-8"?>
<!-- Generator: Adobe Illustrator 23.0.2, SVG Export Plug-In . SVG Version: 6.00 Build 0)  -->
<svg version="1.1" id="Layer_1" xmlns="http://www.w3.org/2000/svg" xmlns:xlink="http://www.w3.org/1999/xlink" x="0px" y="0px"
	 viewBox="0 0 56.7 68" style="enable-background:new 0 0 56.7 68;" xml:space="preserve">
<style type="text/css">
	.st0{fill:#474747;}
	.st1{font-family:'SourceSansPro-SemiBold';}
	.st2{font-size:13.983px;}
	.st3{fill:#037ECD;}
</style>
<text transform="matrix(1 0 0 1 5.16 63.654)" class="st0 st1 st2">RPI-300</text>
<path class="st3" d="M12.3,13.8c0-3.7,0-7.1,0-11c7.7,0.3,15.3,0.3,22.9,1c5.4,0.5,8.9,4.9,9.3,10.4c0.4,5.3-2.2,10.3-7.4,11.6
	c-0.4,0.1-0.8,0.4-1.5,0.7c5,1.2,6.7,4.6,6.8,9.1c0.1,4.2,0,8.3,0,12.6c-4.1,0-8,0-12.3,0c0-3.8,0.1-7.4,0-11.1
	c-0.1-4-1.5-5.5-5.6-5.7c-4-0.2-8,0-12.2,0c0-3.7,0-7.1,0-10.8c4.2,0,8.4,0,12.5,0c1.3,0,2.6,0,3.9-0.1c1.9-0.1,2.9-1.3,3-3.1
	c0.1-1.9-0.9-3.1-2.8-3.2c-4.7-0.2-9.3-0.2-14-0.2C14,13.8,13.3,13.8,12.3,13.8z"/>
</svg>
