<svg id="Layer_1" data-name="Layer 1" xmlns="http://www.w3.org/2000/svg" viewBox="0 0 40 40"><defs><style>.cls-1{fill:#1275bc;}.cls-2{fill:#3d519e;}</style></defs><path class="cls-1" d="M32.94,21.86a12.94,12.94,0,1,1-25.88.6V9H3.21V21.86a16.79,16.79,0,1,0,33.58.69q0-.35,0-.69V9H32.94Z"/><path class="cls-1" d="M10.42,21.39a9.58,9.58,0,0,0,19.16,0V9H25.76V21.39a5.73,5.73,0,0,1-11.45.4,2.67,2.67,0,0,1,0-.4V1H3.21V4.86h7.21Z"/><path class="cls-2" d="M18.07,1V21.05a1.93,1.93,0,0,0,3.86.24V4.84H36.79V1Z"/></svg>